<?xml version="1.0" encoding="UTF-8" standalone="no"?>
<svg
   xmlns:dc="http://purl.org/dc/elements/1.1/"
   xmlns:cc="http://creativecommons.org/ns#"
   xmlns:rdf="http://www.w3.org/1999/02/22-rdf-syntax-ns#"
   xmlns:svg="http://www.w3.org/2000/svg"
   xmlns="http://www.w3.org/2000/svg"
   viewBox="0 0 841.88977 595.27557"
   id="svg50"
   height="595.27557"
   width="841.88977"
   version="1.1">
  <metadata
     id="metadata56">
    <rdf:RDF>
      <cc:Work
         rdf:about="">
        <dc:format>image/svg+xml</dc:format>
        <dc:type
           rdf:resource="http://purl.org/dc/dcmitype/StillImage" />
      </cc:Work>
    </rdf:RDF>
  </metadata>
  <defs
     id="defs54" />
  <g
     id="Layer1000">
    <path
       id="path2"
       style="fill:#00763a;fill-rule:evenodd"
       d="M 55.3301,25.7294 H 786.56 c 17.1796,0 31.2354,14.056 31.2354,31.2354 v 481.3463 c 0,17.1794 -14.056,31.2354 -31.2354,31.2354 H 55.3301 c -17.1794,0 -31.2355,-14.0558 -31.2355,-31.2354 V 56.9648 c 0,-17.1797 14.0558,-31.2354 31.2355,-31.2354 z" />
    <g
       id="Layer1001">
      <path
         id="path4"
         style="fill:#ffffff;fill-rule:evenodd"
         d="m 261.0441,345.2848 -5.9383,1.9749 c -5.764,1.937 -8.5583,2.3394 -9.904,-1.3635 -1.6229,-4.453 -0.0514,-18.5136 7.2483,-20.7311 7.7379,-2.3226 12.6457,1.4843 15.0041,9.4132 0.874,2.9351 0.6985,6.0434 -0.2973,7.2137 -1.3793,1.7112 -3.8595,2.7249 -6.1128,3.4928 z m 7.9827,7.825 c 7.8597,-2.9351 14.8453,-6.5486 17.0293,-7.9815 3.9108,-2.6031 4.5054,-6.2356 2.7596,-10.1476 -5.4846,-12.3673 -17.9559,-25.3081 -38.6177,-21.3782 -16.4705,3.1441 -28.2254,17.9547 -28.2254,34.8968 0,20.9747 12.6457,33.2202 28.7149,37.045 14.8621,3.5442 32.9398,-3.7197 40.083,-16.2603 1.0831,-2.9529 -1.8497,-8.2453 -7.5444,-7.7546 -3.5286,4.0159 -9.6067,8.5404 -14.4966,10.094 -4.6117,1.4843 -17.8162,2.6377 -21.6578,-8.2263 -0.9075,-2.5506 -0.1743,-3.3006 1.956,-3.7197 1.1177,-0.2269 11.3704,-3.3531 19.9991,-6.5676 z" />
      <path
         id="path6"
         style="fill:#ffffff;fill-rule:evenodd"
         d="m 600.4232,345.2848 -5.9551,1.9749 c -5.7629,1.937 -8.5583,2.3394 -9.9029,-1.3635 -1.6072,-4.453 -0.0357,-18.5136 7.2651,-20.7311 7.7189,-2.3226 12.6457,1.4843 14.9862,9.4132 0.874,2.9351 0.6985,6.0434 -0.2973,7.2137 -1.3793,1.7112 -3.8595,2.7249 -6.096,3.4928 z m 7.967,7.825 c 7.8586,-2.9351 14.8442,-6.5486 17.0282,-7.9815 3.9287,-2.6031 4.5043,-6.2356 2.7573,-10.1476 -5.4834,-12.3673 -17.9536,-25.3081 -38.5987,-21.3782 -16.4704,3.1441 -28.2421,17.9547 -28.2421,34.8968 0,20.9747 12.6457,33.2202 28.7317,37.045 14.8632,3.5442 32.9241,-3.7197 40.083,-16.2603 1.0842,-2.9529 -1.8677,-8.2453 -7.5445,-7.7546 -3.5263,4.0159 -9.6066,8.5404 -14.5156,10.094 -4.6094,1.4843 -17.8139,2.6377 -21.6555,-8.2263 -0.9086,-2.5506 -0.1765,-3.3006 1.956,-3.7197 1.1166,-0.2269 11.3693,-3.3531 20.0002,-6.5676 z" />
      <path
         id="path8"
         style="fill:#ffffff;fill-rule:evenodd"
         d="m 453.6063,345.2848 -5.9562,1.9749 c -5.764,1.937 -8.5582,2.3394 -9.904,-1.3635 -1.6061,-4.453 -0.0525,-18.5136 7.2483,-20.7311 7.7379,-2.3226 12.6446,1.4843 15.003,9.4132 0.874,2.9351 0.6985,6.0434 -0.2962,7.2137 -1.3804,1.7112 -3.8595,2.7249 -6.0949,3.4928 z m 7.9637,7.825 c 7.8608,-2.9351 14.8453,-6.5486 17.0293,-7.9815 3.913,-2.6031 4.5054,-6.2356 2.7596,-10.1476 -5.4846,-12.3673 -17.9548,-25.3081 -38.6178,-21.3782 -16.4514,3.1441 -28.2242,17.9547 -28.2242,34.8968 0.001,20.9747 12.6457,33.2202 28.7317,37.045 14.8464,3.5442 32.923,-3.7197 40.0663,-16.2603 1.083,-2.9529 -1.851,-8.2453 -7.5445,-7.7546 -3.5286,4.0159 -9.5899,8.5404 -14.4978,10.094 -4.6094,1.4843 -17.815,2.6377 -21.6565,-8.2263 -0.9087,-2.5506 -0.1755,-3.3006 1.9559,-3.7197 1.1177,-0.2269 11.3693,-3.3531 19.998,-6.5676 z" />
      <path
         id="path10"
         style="fill:#ffffff;fill-rule:evenodd"
         d="m 212.6108,363.1534 v -52.049 c -0.0168,-7.3533 0.6292,-9.658 3.1798,-10.6886 1.4664,-0.5756 3.8069,-1.6597 4.5234,-1.9906 0.6985,-0.3163 1.1523,-1.2585 0.8561,-3.8247 -0.2794,-2.4646 -0.5421,-3.8606 -1.1702,-4.0875 -0.2984,-0.0883 -1.101,-0.1408 -2.3237,-0.1576 -3.2659,-0.0715 -32.1373,-0.0178 -32.1541,-0.0178 0.0168,0 -2.27,0 -2.6724,0.0883 -0.541,0.1553 -0.9255,1.1176 -1.1523,3.8594 -0.2627,3.1441 0.0167,3.808 0.751,4.1399 0.7154,0.3309 2.3752,1.415 3.5096,1.9906 1.9739,1.0306 2.7775,3.3364 2.7775,10.6886 l -0.1218,12.8904 c 0,1.1177 -0.8919,2.0264 -2.0085,2.0264 l -18.2879,-0.001 c -1.0998,0 -2.0074,-0.9076 -2.0074,-2.0253 l -0.1218,-12.8904 c 0,-7.3533 0.8025,-9.658 2.7764,-10.6886 1.1523,-0.5756 2.8289,-1.5893 3.5096,-1.9906 1.415,-0.8036 0.4716,-6.9174 -0.209,-7.7557 -0.541,-0.665 -2.6725,-0.4359 -2.6725,-0.4359 h -32.4167 c 0,0 -2.0085,0.1923 -2.2533,0.2794 -1.1702,0.5063 -2.1482,7.2651 -0.6985,7.9122 0.7164,0.3309 3.0569,1.415 4.5244,1.9906 2.5316,1.0306 3.58,3.3364 3.58,10.6886 v 52.049 c 0,8.2788 -1.8688,9.4312 -4.2964,10.7065 -1.7649,0.9064 -3.2134,0.9947 -4.14,2.3047 -0.9076,1.292 -0.105,8.0351 1.0305,8.5928 0.4896,0.2437 2.7775,0.2448 2.7775,0.2448 l 33.1321,-0.001 c 0,0 2.2186,-0.0849 2.7596,-0.2437 1.2406,-0.3319 1.9392,-7.2996 1.0305,-8.5928 -0.9076,-1.3111 -2.3572,-1.3972 -4.121,-2.3047 -2.4287,-1.2764 -4.2964,-2.4277 -4.2964,-10.7065 l 0.105,-20.7679 c 0,-1.0999 0.9076,-2.0074 2.0074,-2.0074 l 18.2879,-0.001 c 1.1166,0 2.0085,0.9086 2.0085,2.0096 l 0.1218,20.7668 c -0.0167,8.2788 -1.9202,9.3608 -4.3143,10.7065 -0.9266,0.5231 -4.017,1.4496 -4.5926,2.2879 -0.6651,0.9255 0.1911,8.0866 1.4138,8.575 0.5243,0.209 2.0097,0.2627 2.0097,0.2627 l 34.5649,-0.001 c 0,0.0168 1.9549,-0.1218 2.1829,-0.2269 1.1702,-0.4895 1.9381,-7.2996 1.0294,-8.5928 -0.9255,-1.3111 -2.374,-1.3972 -4.1389,-2.3047 -2.4276,-1.2764 -4.2964,-2.4277 -4.2796,-10.7065 z" />
      <path
         id="path12"
         style="fill:#ffffff;fill-rule:evenodd"
         d="m 323.3616,364.7942 c 0,0 0,-44.3279 0,-46.2839 0,-1.5726 -0.9243,-2.4802 -2.4958,-2.4802 -1.6956,0 -23.1431,0 -23.1431,0 -1.7817,0 -2.1662,0.332 -2.5674,2.0443 -0.3498,1.4821 -0.1576,2.6892 -0.2973,4.5054 -0.1576,1.7805 0.9433,1.8856 2.3237,2.5853 0.5935,0.3129 1.0305,0.7332 1.5189,1.0305 1.4676,0.8371 2.2533,3.6325 2.2533,8.243 v 30.3556 c 0,6.2513 -2.061,8.4018 -3.8605,9.2579 -0.5935,0.2783 -1.1166,0.6975 -1.8509,1.0127 -1.6945,0.6974 -2.0085,1.501 -1.7291,3.2838 0.1051,0.7846 -0.0704,3.0043 0.3666,4.5054 0.4717,1.6933 0.9433,2.0443 3.1262,2.0443 h 30.321 c 2.1829,0 2.6546,-0.3499 3.1441,-2.0443 0.4192,-1.5011 0.3487,-3.7197 0.4706,-4.5054 0.2626,-1.7839 -0.0336,-2.6378 -1.728,-3.3531 -0.7164,-0.2973 -1.2585,-0.664 -1.852,-0.9434 -1.8163,-0.8573 -4.0003,-3.0055 -4.0003,-9.2579 z" />
      <path
         id="path14"
         style="fill:#ffffff;fill-rule:evenodd"
         d="m 310.3505,311.9606 c 6.7933,0.0167 12.2958,-5.2923 12.2958,-11.8242 0,-6.5329 -5.5025,-11.8241 -12.2958,-11.8241 -6.7778,-0.001 -12.2791,5.2912 -12.2791,11.8241 0,6.5319 5.5013,11.842 12.2791,11.8242 z" />
      <path
         id="path16"
         style="fill:#ffffff;fill-rule:evenodd"
         d="m 365.7695,340.1679 c 0,-6.9342 3.8426,-10.8293 8.5403,-11.4228 3.0402,-0.3845 6.9868,1.7983 7.0047,7.0213 -0.0179,4.5591 -0.0179,25.6054 0,35.8044 -0.0179,10.1834 8.6633,14.0953 15.4388,14.0953 7.179,-0.001 13.38,-3.3005 16.0692,-9.0813 0.8047,-1.7469 -0.1576,-3.2312 -1.0831,-4.1757 -1.1355,-1.1345 -1.9034,-2.0957 -3.58,-1.2742 -2.0085,0.978 -5.1358,4.558 -5.1358,-1.0126 0,-5.4868 -0.1386,-22.933 -0.1386,-36.9232 0,-11.9125 -5.6243,-17.046 -11.8946,-19.0031 -7.4059,-2.3237 -16.4011,1.5022 -20.977,3.6683 -2.3405,1.0987 -3.5096,1.6933 -3.5096,1.6933 0,-0.001 -0.6125,-0.9948 -0.874,-1.624 -0.7332,-1.6777 -0.9613,-2.6892 -2.9865,-2.6892 l -22.287,0.0156 c -1.7638,0 -2.165,0.351 -2.5663,2.0454 -0.3498,1.4832 -0.1408,2.6892 -0.2984,4.5055 -0.1386,1.7983 0.9434,1.8866 2.3416,2.6031 0.5935,0.2973 1.0305,0.7332 1.5011,1.0126 1.4854,0.8383 2.4813,3.6336 2.4813,8.2442 v 31.1234 c 0,6.2513 -2.2712,8.4018 -4.0875,9.2579 -0.5935,0.2783 -1.1177,0.6975 -1.8341,1.0127 -1.6945,0.6974 -2.0085,1.501 -1.7459,3.2838 0.1219,0.7846 -0.0536,3.0043 0.3666,4.5054 0.4885,1.6933 0.9601,2.0443 3.1263,2.0443 h 30.1108 c 2.1829,0 2.6546,-0.3499 3.1441,-2.0443 0.4192,-1.5011 0.3488,-3.7197 0.4706,-4.5054 0.2627,-1.7839 -0.0347,-2.6378 -1.728,-3.3531 -0.7164,-0.2973 -1.2585,-0.664 -1.852,-0.9434 -1.8163,-0.8573 -3.9991,-3.0055 -3.9991,-9.2568 z" />
      <path
         id="path18"
         style="fill:#ffffff;fill-rule:evenodd"
         d="m 662.3752,340.1679 c 0,-6.9342 3.8438,-10.8293 8.5236,-11.4228 3.0569,-0.3845 7.0035,1.7983 7.0035,7.0213 0,4.5591 0,25.6054 0,35.8044 0,10.1834 8.6801,14.0953 15.44,14.0953 7.1968,-0.001 13.3788,-3.3005 16.068,-9.0813 0.8204,-1.7469 -0.1397,-3.2312 -1.0651,-4.1757 -1.1345,-1.1345 -1.9202,-2.0957 -3.5812,-1.2742 -2.0085,0.978 -5.1526,4.558 -5.1526,-1.0126 0,-5.4868 -0.1218,-22.933 -0.1218,-36.9232 0,-11.9125 -5.6243,-17.046 -11.8946,-19.0031 -7.4226,-2.3237 -16.4011,1.5022 -20.9759,3.6683 -2.3583,1.0987 -3.5118,1.6933 -3.5118,1.6933 0,-0.001 -0.6103,-0.9948 -0.8886,-1.624 -0.7343,-1.6777 -0.9623,-2.6892 -2.9865,-2.6892 l -22.268,0.0156 c -1.7838,0 -2.1672,0.351 -2.5696,2.0454 -0.3498,1.4832 -0.1576,2.6892 -0.2961,4.5055 -0.1398,1.7983 0.9422,1.8866 2.3225,2.6031 0.5935,0.2973 1.0306,0.7332 1.5179,1.0126 1.4854,0.8383 2.4824,3.6336 2.4824,8.2442 v 31.1234 c 0,6.2513 -2.2902,8.4018 -4.0874,9.2579 -0.5947,0.2783 -1.1166,0.6975 -1.8521,1.0127 -1.6944,0.6974 -2.0074,1.501 -1.7469,3.2838 0.1229,0.7846 -0.0526,3.0043 0.3833,4.5054 0.4896,1.6933 0.9613,2.0443 3.1285,2.0443 h 30.1098 c 2.1661,0 2.6388,-0.3499 3.1273,-2.0443 0.4359,-1.5011 0.3655,-3.7197 0.4884,-4.5054 0.2616,-1.7839 -0.0357,-2.6378 -1.7291,-3.3531 -0.7332,-0.2973 -1.2741,-0.664 -1.8676,-0.9434 -1.8007,-0.8573 -4.0014,-3.0055 -4.0014,-9.2568 z" />
      <path
         id="path20"
         style="fill:#ffffff;fill-rule:evenodd"
         d="m 561.4579,374.9943 c -0.7344,-0.2961 -5.3102,-0.9779 -8.0363,-6.0076 l -16.6616,-30.4785 10.1309,-9.7978 c 0,-0.0179 2.6545,-2.5148 4.6105,-3.8426 1.9582,-1.31 4.4026,-2.2008 5.3448,-2.3405 0.7858,-0.1218 1.5212,-0.8897 1.2753,-4.8553 -0.2257,-3.476 -0.8919,-3.7208 -1.7123,-3.8259 -0.418,-0.0514 -1.9548,-0.086 -1.9548,-0.086 0.001,0 -6.8829,0.1039 -12.4188,0.1039 -5.5371,-0.001 -13.3432,-0.1039 -13.3432,-0.1039 0,0 -1.539,0.0346 -1.9392,0.086 -0.8383,0.104 -1.4686,0.3499 -1.7134,3.8259 -0.2247,3.143 0,4.0338 0.7354,4.3669 0.7176,0.3129 1.5715,0.6628 2.6356,1.3613 1.4865,0.9791 1.9403,2.184 0.5957,3.5286 -1.3457,1.3614 -6.951,7.1611 -6.951,7.1611 l -6.7777,5.6231 0.0179,-44.4151 c -0.228,-3.6672 -1.2239,-5.2744 -5.2052,-5.2744 l -21.2397,0.0167 c -1.7794,0 -2.4623,0.3499 -2.8646,2.0443 -0.3465,1.4832 -0.2616,2.3058 -0.4013,4.1221 -0.1565,1.7816 0.9433,1.8867 2.3237,2.602 0.5946,0.2962 1.7637,0.9266 2.2522,1.2049 2.412,1.3803 3.1452,2.7775 3.1452,8.4364 l 0.001,56.3443 c 0,6.2513 -2.0107,8.4018 -3.8091,9.2579 -0.5924,0.2783 -1.1177,0.6975 -1.8521,1.0127 -1.6944,0.6974 -2.0073,1.501 -1.7279,3.2838 0.105,0.7846 -0.0704,3.0043 0.3666,4.5054 0.4895,1.6933 0.9601,2.0443 3.1262,2.0443 h 30.0584 c 2.1851,0 2.6556,-0.3499 3.1441,-2.0443 0.4191,-1.5011 0.3498,-3.7197 0.4705,-4.5054 0.2627,-1.7839 -0.0346,-2.6378 -1.7291,-3.3531 -0.7153,-0.2973 -1.2563,-0.664 -1.8498,-0.9434 -3.5274,-1.643 -4.245,-5.1883 -4.245,-10.9165 l 0.001,-4.0696 6.0948,-4.995 15.9307,28.9395 c 0.8371,1.5558 1.0629,1.8878 3.2458,1.8878 h 19.04 c 2.1661,0 2.6356,-0.3499 3.1419,-2.0443 0.4213,-1.5011 0.3509,-3.7197 0.456,-4.5054 0.2783,-1.7839 -0.019,-2.6378 -1.7123,-3.3543 z" />
      <path
         id="path22"
         style="fill:#ffffff;fill-rule:evenodd"
         d="m 700.5906,306.457 c -5.868,0 -10.6361,-4.767 -10.6361,-10.6349 0,-5.8679 4.767,-10.636 10.6361,-10.636 5.8679,-0.001 10.6371,4.7681 10.6371,10.636 0,5.8679 -4.7692,10.636 -10.6371,10.6349 z m -13.5175,-10.636 c 0,7.4595 6.0423,13.5197 13.5175,13.5197 7.4584,-0.001 13.5174,-6.0602 13.5174,-13.5186 0,-7.4752 -6.0601,-13.5186 -13.5174,-13.5186 -7.4752,-0.001 -13.5187,6.0434 -13.5175,13.5175 z" />
      <path
         id="path24"
         style="fill:#ffffff;fill-rule:evenodd"
         d="m 701.0611,293.8125 c -1.1177,0 -2.6892,0.001 -2.6892,0.001 l 0.001,-3.3363 c 0,0 1.3256,0 2.3584,0 1.0283,0 2.251,0.437 2.251,1.5905 0,0.9947 -0.7868,1.7458 -1.9213,1.7447 z m -6.0233,8.5582 h 3.3173 v -5.6768 c 0.0179,0 0.2102,0.0369 1.3435,0.0715 1.6609,0.0682 2.5327,0.3845 3.0402,1.9381 0.3319,1.082 0.5063,2.1136 1.2037,3.6683 1.4687,0.0347 1.87,0.0347 3.4236,0.0347 -0.3666,-0.9098 -0.9076,-2.0074 -1.1513,-3.5633 -0.2447,-1.5904 -0.7868,-2.4622 -1.9906,-3.2659 1.0808,-0.4023 2.1829,-1.7469 2.1829,-3.7018 0,-3.0916 -3.2324,-4.0528 -4.4194,-4.0528 -1.1703,0 -6.9499,0 -6.9499,0 z" />
    </g>
    <path
       id="path27"
       style="fill:#009035;fill-rule:evenodd;stroke:#ffffff;stroke-width:9.80029964;stroke-linecap:round;stroke-linejoin:round;stroke-dasharray:none"
       d="m 399.7713,156.6168 -66.0146,0.0968 53.3008,39.0003 -20.4472,62.8351 53.4355,-38.8839 53.6844,38.8447 -20.3897,-62.8143 53.3388,-39.0787 -66.2438,-0.0183 -20.1593,-62.7016 z" />
    <path
       id="path29"
       style="fill:#ffffff;fill-rule:evenodd"
       d="m 500.3985,231.833 1.5196,8.586 h 0.0527 l 1.2386,-8.586 h 4.1812 l 1.6426,14.5791 h -3.1974 l -0.7379,-10.494 h -0.0527 l -0.5007,3.604 -1.3351,6.89 h -2.3981 l -1.5196,-6.9878 -0.5183,-3.2453 v -0.2609 h -0.0527 l -0.4568,10.494 h -3.3379 l 1.3791,-14.5791 z" />
    <path
       id="path31"
       style="fill:#ffffff;fill-rule:evenodd"
       d="m 519.9918,231.833 3.7771,14.5791 h -3.3291 l -0.5798,-2.4543 h -3.1447 l -0.5622,2.4543 h -3.092 l 3.6542,-14.5791 z m -1.3791,5.9523 -0.3514,-2.2015 h -0.0439 l -0.3338,2.2015 -0.6588,3.8813 h 2.1872 z" />
    <path
       id="path33"
       style="fill:#ffffff;fill-rule:evenodd"
       d="M 528.3091,246.4121 V 231.833 h 3.1271 c 1.9764,0 5.5164,0.1713 5.5164,4.1666 0,1.6064 -0.6764,2.9925 -2.2312,3.7834 l 2.7407,6.6291 h -3.2765 l -2.7318,-6.7106 h -0.0264 v 6.7106 z m 3.1183,-8.3169 0.5358,0.008 c 1.4231,0 1.9677,-0.8724 1.9677,-2.0792 0,-1.0518 -0.5359,-1.8998 -2.0994,-1.8183 h -0.4041 z" />
    <path
       id="path35"
       style="fill:#ffffff;fill-rule:evenodd"
       d="m 546.0011,231.833 v 6.5068 h 0.0527 l 2.5913,-6.5068 h 3.1622 l -2.8899,6.7188 3.2677,7.8603 h -3.2677 l -2.8636,-7.42 h -0.0527 v 7.42 h -3.092 V 231.833 Z" />
    <path
       id="path37"
       style="fill:#ffffff;fill-rule:evenodd"
       d="m 289.2136,231.833 v 2.6908 h -2.4507 v 11.8883 h -3.1096 v -11.8883 h -2.4332 v -2.6908 z" />
    <path
       id="path39"
       style="fill:#ffffff;fill-rule:evenodd"
       d="M 294.7861,246.4121 V 231.833 h 3.1271 c 1.9676,0 5.5252,0.1713 5.5252,4.1666 0,1.6064 -0.694,2.9925 -2.24,3.7834 l 2.7407,6.6291 h -3.2765 l -2.7318,-6.7106 h -0.0352 v 6.7106 z m 3.1095,-8.3169 0.5446,0.008 c 1.4055,0 1.9677,-0.8724 1.9677,-2.0792 0,-1.0518 -0.5359,-1.8998 -2.0994,-1.8183 h -0.4129 z" />
    <path
       id="path41"
       style="fill:#ffffff;fill-rule:evenodd"
       d="m 314.9228,231.833 3.7771,14.5791 h -3.3203 l -0.5886,-2.4543 h -3.1447 l -0.5709,2.4543 h -3.0745 l 3.6454,-14.5791 z m -1.3791,5.9523 -0.3426,-2.2015 h -0.0527 l -0.325,2.2015 -0.6676,3.8813 h 2.1872 z" />
    <path
       id="path43"
       style="fill:#ffffff;fill-rule:evenodd"
       d="M 323.3267,246.4121 V 231.833 h 2.3629 c 0.5359,0 7.0536,-0.7338 7.0536,7.4119 0,4.1421 -1.7392,7.1672 -6.6407,7.1672 z m 6.2982,-7.1835 c 0,-1.8673 -0.6325,-4.8108 -3.1886,-4.8108 v 9.4177 c 2.5122,0.106 3.1886,-2.7886 3.1886,-4.6069 z" />
    <path
       id="path45"
       style="fill:#ffffff;fill-rule:evenodd"
       d="m 344.3679,231.833 v 2.6908 h -3.1447 v 3.18 h 2.7582 v 2.7152 h -2.7582 v 3.2942 h 3.1886 v 2.6989 h -6.3069 V 231.833 Z" />
    <path
       id="path47"
       style="fill:#ffffff;fill-rule:evenodd"
       d="m 706.4663,473.0053 c 0,5.5264 -4.5073,10.0337 -10.0337,10.0337 -5.5263,0 -10.0336,-4.5073 -10.0336,-10.0337 v -15.1709 c 0,-5.5263 4.5073,-10.0336 10.0336,-10.0336 5.5264,0 10.0337,4.5073 10.0337,10.0336 z m 0.3962,14.2616 c 0.5311,1.4354 1.8599,2.5458 3.4803,2.5458 2.0741,0 3.7657,-1.6915 3.7657,-3.7656 v -59.8989 c 0,-2.0741 -1.6916,-3.7657 -3.7657,-3.7657 -2.0742,0 -3.7657,1.6916 -3.7657,3.7657 l -3e-4,17.6106 c -2.6388,-2.1604 -6.4651,-3.5354 -10.1443,-3.5354 -9.6113,0 -17.4504,7.8391 -17.4504,17.4505 v 15.492 c 0,9.6112 7.8391,17.4503 17.4504,17.4503 3.7781,0 7.5662,-1.2896 10.43,-3.3493 z m -40.8373,2.8968 c -4.8132,-2.1975 -7.9159,-7.0647 -7.888,-14.194 l 0.0156,-49.8215 c 0,-2.0741 1.6916,-3.7657 3.7657,-3.7657 2.0741,0 3.7657,1.6916 3.7657,3.7657 l -0.0236,50.6075 c 0.0259,3.3649 1.2211,5.7555 4.0016,7.0407 1.054,0.6351 1.7625,1.7983 1.7625,3.1217 0,2.0168 -1.6449,3.6617 -3.6616,3.6617 -0.6302,0 -1.2242,-0.1607 -1.7379,-0.4161 z M 645.035,447.4706 c 1.9934,0.1478 3.6167,-1.4732 3.5788,-3.4344 -0.038,-1.9612 -1.4585,-3.6371 -3.8589,-3.6953 -3.4827,-0.0845 -7.2496,0.3825 -9.4961,2.9783 -0.6486,-1.2158 -1.8831,-1.9065 -3.2441,-1.9065 -2.0741,0 -3.7657,1.6916 -3.7657,3.7657 v 40.8687 c 0,2.0741 1.6916,3.7656 3.7657,3.7656 2.0742,0 3.7657,-1.6915 3.7657,-3.7656 l -0.001,-28.4845 c 0.1576,-6.3291 3.8135,-10.496 9.2561,-10.092 z m -35.7667,25.5347 c 0,5.5264 -4.5073,10.0337 -10.0337,10.0337 -5.5263,0 -10.0337,-4.5073 -10.0337,-10.0337 v -15.1709 c 0,-5.5263 4.5074,-10.0336 10.0337,-10.0336 5.5264,0 10.0337,4.5073 10.0337,10.0336 z m 7.4167,0.1606 c 0,9.6112 -7.8391,17.4503 -17.4506,17.4503 -9.6112,0 -17.4503,-7.8391 -17.4503,-17.4503 v -15.492 c 0,-9.6114 7.8391,-17.4505 17.4503,-17.4505 9.6115,0 17.4506,7.8391 17.4506,17.4505 z m -57.8155,-0.9752 -7.9479,-28.2941 c -0.457,-1.6195 -1.9203,-2.8344 -3.5458,-2.8525 -1.6581,-0.0186 -3.1817,1.2649 -3.6481,2.8732 l -8.234,28.5108 -7.4157,-28.5535 c -0.519,-2.0083 -2.5798,-3.2229 -4.5881,-2.7041 -2.0081,0.5188 -3.2227,2.5798 -2.7039,4.5879 l 10.8261,41.7829 c 0.3152,1.318 1.296,2.2942 2.575,2.6889 2.0455,0.6037 4.1413,-0.5495 4.7192,-2.5415 l 8.3494,-28.8379 8.1503,28.8272 c 0.3164,1.1213 1.1151,1.9781 2.3956,2.4893 2.2947,0.5969 4.3557,-0.6177 4.8745,-2.626 l 10.8261,-41.7829 c 0.5188,-2.0081 -0.6958,-4.0691 -2.7039,-4.5879 -2.0083,-0.5188 -4.0691,0.6958 -4.588,2.7041 z m -64.5176,-24.7201 c 1.9935,0.1478 3.6168,-1.4732 3.5789,-3.4344 -0.038,-1.9612 -1.4585,-3.6371 -3.8589,-3.6953 -3.4827,-0.0845 -7.2496,0.3825 -9.4961,2.9783 -0.6486,-1.2158 -1.8831,-1.9065 -3.2441,-1.9065 -2.0741,0 -3.7657,1.6916 -3.7657,3.7657 v 40.8687 c 0,2.0741 1.6916,3.7656 3.7657,3.7656 2.0742,0 3.7657,-1.6915 3.7657,-3.7656 l -0.002,-28.4845 c 0.1576,-6.3291 3.8135,-10.496 9.256,-10.092 z m -30.3647,25.3728 c 0,9.9337 -7.8391,17.7728 -17.4506,17.7728 -9.6112,0 -17.4503,-7.8391 -17.4503,-17.7728 v -27.9329 c 0,-2.0742 1.6915,-3.7657 3.7657,-3.7657 2.0741,0 3.7656,1.6915 3.7656,3.7657 l -0.0571,27.8526 c -0.0574,5.7686 4.45,10.2759 9.9763,10.2759 5.5263,0 10.0337,-4.5073 9.9763,-10.2551 l -0.0573,-27.8734 c 0,-2.0742 1.6916,-3.7657 3.7657,-3.7657 2.0741,0 3.7657,1.6915 3.7657,3.7657 z m -46.3967,0.3225 c 0,9.6112 -7.8391,17.4503 -17.4505,17.4503 -9.6112,0 -17.4504,-7.8391 -17.4504,-17.4503 v -15.492 c 0,-9.6114 7.8392,-17.4505 17.4504,-17.4505 9.6114,0 17.4505,7.8391 17.4505,17.4505 z m -7.4167,-0.1606 c 0,5.5264 -4.5073,10.0337 -10.0336,10.0337 -5.5264,0 -10.0337,-4.5073 -10.0337,-10.0337 v -15.1709 c 0,-5.5263 4.5073,-10.0336 10.0337,-10.0336 5.5263,0 10.0336,4.5073 10.0336,10.0336 z m -56.5329,13.0509 -5.7931,15.5276 c -0.718,1.946 0.2834,4.1184 2.2292,4.8365 1.946,0.7179 4.1185,-0.2835 4.8365,-2.2294 l 21.6414,-58.1046 c 0.7181,-1.9458 -0.2834,-4.1184 -2.2293,-4.8363 -1.9459,-0.7181 -4.1183,0.2834 -4.8364,2.2293 l -11.7942,31.6192 -11.5286,-31.6192 c -0.7004,-1.9459 -2.8638,-2.9474 -4.8163,-2.2293 -1.9523,0.7179 -2.9734,2.8905 -2.2731,4.8363 z m -44.7694,-12.8903 v -15.492 c 0,-9.6114 -7.8391,-17.4505 -17.4505,-17.4505 -3.9045,0 -7.5167,1.2938 -10.448,3.4832 -0.5915,-1.3423 -1.9319,-2.2939 -3.4874,-2.2939 -2.0742,0 -3.7657,1.6916 -3.7657,3.7657 v 40.8687 c 0,2.0741 1.6915,3.7656 3.7657,3.7656 2.0741,0 3.7657,-1.6915 3.7657,-3.7656 l 0.0682,-28.2172 c 0.068,-5.5218 4.5753,-10.0291 10.1017,-10.0291 5.5263,0 10.0336,4.5073 9.9763,10.0141 l -0.0573,28.2322 c 0,2.0741 1.6915,3.7656 3.7656,3.7656 2.0742,0 3.7657,-1.6915 3.7657,-3.7656 v -28.3514 z m -75.0204,-9.156 v -6.1755 c 0,-5.5263 4.5073,-10.0336 10.0337,-10.0336 5.5263,0 10.0337,4.5073 10.0337,10.0336 v 2.6003 z m 27.4827,-1.2773 0.001,-5.0587 c 0,-9.6114 -7.8392,-17.4505 -17.4506,-17.4505 -9.6112,0 -17.4504,7.8391 -17.4504,17.4505 v 15.492 c 0,9.6112 7.8392,17.4503 17.4504,17.4503 6.7578,0 12.6397,-2.0554 15.5253,-6.5866 1.2451,-1.8671 0.7758,-4.0825 -0.7783,-5.1857 -1.767,-1.1397 -3.7563,-0.8372 -5.7529,1.2273 -2.5122,2.5976 -5.865,2.9672 -8.9939,2.9678 -5.5264,0 -10.0337,-4.5073 -10.0337,-10.0337 v -1.2409 l 23.5017,-4.4106 c 2.8753,-0.5184 4.0109,-2.1143 3.981,-4.6212 z m -53.4846,10.2727 c 0,5.5264 -4.5073,10.0337 -10.0336,10.0337 -5.5264,0 -10.0337,-4.5073 -10.0337,-10.0337 v -15.1709 c 0,-5.5263 4.5073,-10.0336 10.0337,-10.0336 5.5263,0 10.0336,4.5073 10.0336,10.0336 z m -20.0538,13.9336 c 2.6628,2.3746 6.3004,3.6773 10.02,3.6773 9.6114,0 17.4506,-7.8391 17.4506,-17.4503 v -15.492 c 0,-9.6114 -7.8392,-17.4505 -17.4506,-17.4505 -3.8678,0 -7.4489,1.2696 -10.3364,3.4525 -0.5621,-1.3116 -1.9025,-2.2632 -3.458,-2.2632 -2.0741,0 -3.7657,1.6916 -3.7657,3.7657 v 57.5186 c 0,2.0742 1.6916,3.7657 3.7657,3.7657 2.0742,0 3.7657,-1.6915 3.7657,-3.7657 z m -26.8131,-13.9336 c 0,5.5264 -4.5073,10.0337 -10.0337,10.0337 -5.5263,0 -10.0336,-4.5073 -10.0336,-10.0337 v -15.1709 c 0,-5.5263 4.5073,-10.0336 10.0336,-10.0336 5.5264,0 10.0337,4.5073 10.0337,10.0336 z m 7.4167,0.1606 c 0,9.6112 -7.8391,17.4503 -17.4505,17.4503 -9.6113,0 -17.4504,-7.8391 -17.4504,-17.4503 v -15.492 c 0,-9.6114 7.8391,-17.4505 17.4504,-17.4505 9.6114,0 17.4505,7.8391 17.4505,17.4505 z" />
  </g>
</svg>
