<?xml version="1.0" encoding="utf-8"?>
<!-- Generator: Adobe Illustrator 14.0.0, SVG Export Plug-In . SVG Version: 6.00 Build 43363)  -->
<!DOCTYPE svg PUBLIC "-//W3C//DTD SVG 1.1//EN" "http://www.w3.org/Graphics/SVG/1.1/DTD/svg11.dtd">
<svg version="1.1" id="Capa_1" xmlns="http://www.w3.org/2000/svg" xmlns:xlink="http://www.w3.org/1999/xlink" x="0px" y="0px"
	 width="85.039px" height="85.039px" viewBox="0 0 85.039 85.039" enable-background="new 0 0 85.039 85.039" xml:space="preserve">
<g>
	<path fill="#F6D900" d="M60.626,14.364c0.32-0.343,1.336-1.384,1.908-0.99c0.572,0.392-0.035,1.712-0.234,2.133
		c-0.221,0.405-0.152,0.921,0.162,1.274c1.598,1.227,3.078,2.605,4.42,4.102c0.377,0.293,0.906,0.33,1.299,0.078
		c0.41-0.233,1.684-0.931,2.117-0.388c0.432,0.542-0.537,1.624-0.85,1.971c-0.336,0.324-0.418,0.843-0.221,1.273
		c1.162,1.639,2.18,3.392,3.029,5.238c0.275,0.377,0.758,0.56,1.199,0.431c0.461-0.101,1.885-0.391,2.137,0.26
		c0.252,0.641-0.994,1.393-1.393,1.628c-0.408,0.209-0.643,0.671-0.588,1.133c0.621,1.891,1.072,3.861,1.342,5.891
		c0.145,0.455,0.563,0.785,1.033,0.795c0.465,0.041,1.91,0.186,1.963,0.877c0.053,0.688-1.359,1.038-1.811,1.143
		c-0.475,0.083-0.84,0.485-0.906,0.967l0.004,0.542c0,1.851-0.152,3.66-0.447,5.43c0.002,0.479,0.307,0.913,0.75,1.062
		c0.436,0.176,1.775,0.738,1.621,1.416c-0.152,0.677-1.605,0.593-2.072,0.563c-0.457-0.062-0.914,0.195-1.129,0.616
		c-0.561,1.955-1.305,3.832-2.203,5.615c-0.135,0.458,0.023,0.963,0.404,1.236c0.363,0.293,1.479,1.228,1.131,1.83
		c-0.346,0.601-1.709,0.091-2.145-0.077c-0.432-0.192-0.955-0.078-1.283,0.283c-1.094,1.665-2.336,3.218-3.709,4.647
		c-0.293,0.404-0.301,0.957-0.008,1.344c0.262,0.389,1.053,1.611,0.541,2.08c-0.506,0.472-1.66-0.415-2.025-0.701
		c-0.361-0.32-0.91-0.354-1.33-0.095c-1.531,1.258-3.178,2.383-4.92,3.357c-0.383,0.3-0.541,0.815-0.379,1.26
		c0.139,0.448,0.531,1.847-0.092,2.15c-0.625,0.3-1.469-0.89-1.734-1.271c-0.24-0.404-0.734-0.6-1.203-0.499
		c-1.83,0.762-3.744,1.354-5.727,1.77c-0.453,0.176-0.758,0.62-0.734,1.092c-0.002,0.472-0.039,1.925-0.725,2.025
		c-0.684,0.104-1.139-1.277-1.279-1.722c-0.119-0.473-0.557-0.81-1.057-0.829c-0.973,0.088-1.961,0.135-2.957,0.135
		c-0.991,0-1.974-0.047-2.944-0.132c-0.501,0.014-0.945,0.354-1.066,0.829c-0.139,0.445-0.601,1.823-1.287,1.722
		c-0.687-0.101-0.71-1.557-0.713-2.024c0.023-0.476-0.283-0.924-0.743-1.096c-1.97-0.415-3.879-1.004-5.701-1.759
		c-0.474-0.108-0.978,0.084-1.225,0.492c-0.267,0.387-1.115,1.566-1.739,1.267c-0.625-0.3-0.221-1.699-0.086-2.144
		c0.165-0.455,0-0.978-0.397-1.277c-1.723-0.96-3.349-2.069-4.859-3.313c-0.429-0.286-1.001-0.264-1.377,0.067
		c-0.366,0.293-1.525,1.17-2.032,0.697c-0.507-0.468,0.29-1.688,0.549-2.072c0.304-0.404,0.287-0.987-0.045-1.393
		c-1.343-1.404-2.559-2.925-3.635-4.556c-0.323-0.391-0.873-0.529-1.324-0.327c-0.438,0.169-1.805,0.668-2.15,0.067
		c-0.349-0.6,0.773-1.527,1.136-1.82c0.393-0.283,0.553-0.815,0.389-1.284c-0.879-1.752-1.607-3.595-2.163-5.509
		c-0.204-0.459-0.676-0.735-1.159-0.678c-0.469,0.033-1.919,0.107-2.074-0.569c-0.151-0.678,1.191-1.233,1.626-1.405
		c0.465-0.159,0.776-0.631,0.744-1.14c-0.286-1.745-0.435-3.535-0.435-5.362v-0.319v-0.088c-0.013-0.54-0.398-1.004-0.915-1.092
		c-0.454-0.108-1.861-0.469-1.812-1.156c0.053-0.691,1.499-0.829,1.965-0.87c0.501-0.01,0.942-0.381,1.056-0.886
		c0.266-1.961,0.704-3.875,1.301-5.713c0.098-0.491-0.139-0.997-0.573-1.223c-0.402-0.239-1.646-0.994-1.39-1.639
		c0.252-0.646,1.676-0.35,2.133-0.249c0.472,0.136,0.989-0.08,1.256-0.513c0.803-1.738,1.761-3.39,2.844-4.946l0.047-0.064
		c0.299-0.458,0.236-1.062-0.138-1.425c-0.316-0.348-1.279-1.437-0.844-1.979c0.431-0.543,1.703,0.161,2.107,0.395
		c0.458,0.296,1.101,0.195,1.47-0.243c1.247-1.368,2.606-2.629,4.063-3.769l0.065-0.054c0.415-0.347,0.534-0.939,0.286-1.395
		c-0.203-0.425-0.8-1.753-0.228-2.141c0.573-0.391,1.584,0.658,1.901,0.998c0.325,0.384,0.892,0.495,1.36,0.27
		c1.659-0.994,3.417-1.844,5.252-2.534c0.46-0.229,0.718-0.731,0.618-1.22c-0.065-0.465-0.249-1.908,0.418-2.11
		c0.659-0.205,1.314,1.093,1.521,1.514c0.192,0.465,0.703,0.734,1.219,0.656c1.814-0.438,3.688-0.73,5.611-0.855
		c0.572-0.017,1.051-0.455,1.104-0.997c0.072-0.465,0.325-1.897,1.021-1.897c0.69,0,0.935,1.436,1.007,1.897
		c0.053,0.522,0.494,0.947,1.037,0.993l0.072,0.004c1.973,0.128,3.898,0.429,5.762,0.89c0.451,0.004,0.877-0.259,1.051-0.674
		c0.205-0.418,0.869-1.709,1.531-1.506c0.662,0.202,0.471,1.645,0.406,2.105c-0.09,0.438,0.111,0.894,0.49,1.146
		c1.93,0.714,3.773,1.607,5.508,2.655C59.837,14.837,60.333,14.712,60.626,14.364"/>
	<path fill="#FFFFFF" d="M49.277,22.035c0,4.426-1.811,5.666-2.963,5.881c-0.102,0.395-0.201,0.775-0.313,1.149
		c-0.131,0.448-0.541,0.775-1.023,0.775h-2.006h-0.668h-0.47h-0.873h-0.129h-0.8c-0.044,0.003-0.09,0.003-0.132,0h-0.402
		c-0.487,0-0.896-0.327-1.024-0.769c-0.54-1.833-0.787-3.674-0.743-5.521c-0.784-0.091-1.384-0.731-1.384-1.517
		c0-0.333,0.111-0.644,0.297-0.894c-0.214-0.394-0.339-0.821-0.339-1.28c0-1.381,1.119-2.507,2.502-2.514
		c0.649-0.715,1.567-1.159,2.592-1.159c0.994,0,1.892,0.421,2.522,1.089c0.225-0.048,0.443-0.074,0.666-0.074
		c1.43,0,2.59,1.159,2.59,2.588c0,0.172-0.02,0.337-0.049,0.499C48.232,20.341,49.277,20.553,49.277,22.035 M47.542,21.584
		c-0.256-0.04-0.605-0.034-0.932-0.018c0.164,1.402,0.186,2.773,0.051,4.143c0.135-0.017,0.242-0.095,0.346-0.212
		c0.338-0.436,0.713-1.358,0.713-3.316v-0.148C47.72,21.82,47.662,21.679,47.542,21.584 M40.033,29.861h-0.132
		C39.943,29.864,39.989,29.864,40.033,29.861"/>
	<polygon fill="#104C8C" points="42.516,55.265 50.027,44.312 53.728,59.299 62.728,59.299 53.792,24.081 42.499,40.548 
		31.203,24.081 22.268,59.299 31.268,59.299 34.969,44.312 	"/>
	<path fill="#104C8C" d="M44.595,36.976c0.729,0,1.404,0.117,2.02,0.37c0.639,0.267,1.152,0.685,1.527,1.251l0.412,0.64v-2.258
		h3.299h0.537h6.836h0.523h8.818l-4.609,7.634h3.549v3.596h-9.861H57.38h-3.572v-7.634h-1.27v7.634H48.56l-3.191-0.004l-1.363-2.14
		l0.023,0.718c0.02,0.543,0.023,1.126,0.027,1.422h-3.984v-2.692l-0.356,0.509c-0.49,0.701-1.117,1.268-1.88,1.695
		c-0.929,0.519-1.985,0.778-3.145,0.785c-1.159-0.007-2.216-0.267-3.145-0.785c-0.29-0.166-0.562-0.351-0.813-0.553l-0.459-0.371
		l0.349,1.368H26.55l-0.813-3.289l-1.841,2.683l-1.85-2.686l-0.814,3.292H17.16l3.183-12.547l3.547,5.17l3.551-5.17l1.323,5.221
		l0.224-0.55c0.132-0.313,0.29-0.613,0.483-0.899c0.568-0.855,1.321-1.526,2.239-2.002c0.922-0.481,1.922-0.721,2.981-0.729
		c1.06,0.008,2.061,0.247,2.982,0.729c0.817,0.425,1.505,1.005,2.046,1.729l0.353,0.468v-2.604H44.595z M57.763,47.203v-6.659h4.045
		L57.763,47.203z"/>
	<path fill="#104C8C" d="M47.585,25.352c-0.137,0.272-0.289,0.472-0.441,0.613c-0.072,0.067-0.145,0.128-0.217,0.176
		c0.023-0.22,0.047-0.435,0.066-0.658c0.029-0.036,0.063-0.08,0.092-0.131H47.585z M42.23,25.352
		c-0.021,0.155-0.03,0.313-0.034,0.476c-0.49,0.148-0.869,1.055-0.869,2.149h1.012v-0.58h1.026c0.035-0.649,0.059-1.351,0.072-2.045
		h1.313c-0.041,0.873-0.113,1.739-0.225,2.605c0.486-0.132,0.859-0.887,0.859-1.793c0-0.29-0.037-0.566-0.107-0.813h1.436
		c-0.035,0.422-0.082,0.839-0.145,1.257c0.428-0.11,0.955-0.418,1.338-1.257h0.922c-0.613,1.803-1.715,2.434-2.512,2.585
		c-0.082,0.378-0.182,0.759-0.293,1.133c-0.135,0.461-0.551,0.792-1.045,0.792h-2.006c0.131,0,0.244-0.331,0.279-0.782l0.018-0.219
		c0.02-0.297,0.041-0.59,0.063-0.884h-0.993l-0.008,1.093c-0.003,0.461-0.013,0.792-0.028,0.792h-0.465h-0.876h-0.125
		c-0.256,0-0.469-0.331-0.534-0.782c-0.188-1.237-0.309-2.48-0.355-3.728H42.23z M38.634,25.352
		c0.045,0.685,0.117,1.365,0.229,2.045h0.817c0.021,0.193,0.049,0.385,0.076,0.58h-0.797c0.068,0.364,0.145,0.731,0.23,1.093
		c0.111,0.461,0.444,0.792,0.843,0.792h-0.536c-0.492,0-0.91-0.331-1.041-0.782c-0.366-1.24-0.594-2.48-0.694-3.728H38.634z"/>
	<path fill="#104C8C" d="M47.085,25.352c0.307-0.475,0.619-1.393,0.619-3.171v-0.148c0-0.209-0.061-0.344-0.174-0.435l0.076,0.013
		c0.352,0.064,0.531,0.199,0.531,0.57c0,1.587-0.242,2.564-0.553,3.171H47.085z M37.761,25.352c-0.048-0.6-0.066-1.199-0.051-1.8
		c-0.773-0.074-1.382-0.725-1.382-1.517c0-0.337,0.111-0.65,0.297-0.903c-0.213-0.374-0.337-0.806-0.337-1.271
		c0-1.392,1.127-2.527,2.519-2.534c0.639-0.711,1.564-1.159,2.596-1.159c0.998,0,1.896,0.425,2.532,1.096
		c0.211-0.054,0.428-0.082,0.652-0.082c1.441,0,2.609,1.17,2.609,2.609c0,0.172-0.018,0.34-0.049,0.502
		c1.084,0.023,2.15,0.239,2.15,1.742c0,1.402-0.184,2.487-0.471,3.316h-0.922c0.309-0.664,0.523-1.665,0.523-3.171
		c0-0.991-1.053-0.91-1.857-0.876c0.201,1.354,0.248,2.702,0.141,4.047h-1.436c-0.107-0.374-0.283-0.677-0.504-0.846
		c-0.002,0.283-0.014,0.566-0.023,0.846h-1.313c0.01-0.469,0.014-0.934,0.014-1.378v-0.176c-0.537,0.102-0.981,0.597-1.165,1.25
		c-0.02,0.098-0.041,0.203-0.056,0.304h-2.283c-0.06-1.389-0.032-2.784,0.082-4.186h3.367l-0.027-0.58h-3.287
		c0.033-0.354,0.072-0.711,0.116-1.065c0.297,0.213,0.662,0.341,1.061,0.341c0.49,0,0.938-0.195,1.262-0.512
		c0.256,0.476,0.763,0.802,1.343,0.802c0.293,0,0.566-0.081,0.797-0.222c0.203,0.435,0.645,0.733,1.156,0.733
		c0.174,0,0.338-0.033,0.49-0.098c0.107-0.235,0.164-0.498,0.164-0.774c0-1.042-0.84-1.884-1.883-1.884
		c-0.328,0-0.588,0.091-0.887,0.202c-0.611-0.748-1.29-1.217-2.298-1.217c-0.975,0-1.677,0.445-2.269,1.177
		c-0.103-0.007-0.205-0.018-0.311-0.018c-1,0-1.811,0.81-1.811,1.81c0,0.584,0.23,0.917,0.563,1.355
		c-0.27,0.235-0.522,0.421-0.522,0.818c0,0.401,0.302,0.738,0.688,0.789c0.034-0.55,0.096-1.106,0.184-1.658h1.377
		c-0.494,1.847-0.704,2.325-0.704,2.325c-0.014,0.62,0,1.24,0.037,1.86H37.761z"/>
	<path fill="#104C8C" d="M39.515,31.954h-0.418l0.167-0.273h0.537v2.403h-0.286V31.954z M40.401,33.412
		c0-0.127,0.033-0.245,0.096-0.35c0.064-0.104,0.158-0.179,0.283-0.227c-0.102-0.054-0.178-0.127-0.231-0.222
		c-0.056-0.091-0.085-0.195-0.085-0.313c0-0.131,0.033-0.249,0.096-0.351c0.059-0.098,0.141-0.179,0.244-0.232
		c0.104-0.061,0.221-0.088,0.348-0.088c0.132,0,0.245,0.027,0.35,0.088c0.103,0.054,0.186,0.135,0.248,0.232
		c0.059,0.102,0.091,0.22,0.094,0.351c0,0.118-0.028,0.223-0.084,0.313c-0.055,0.095-0.133,0.168-0.234,0.222
		c0.128,0.048,0.221,0.122,0.283,0.227c0.065,0.104,0.096,0.223,0.096,0.35c0,0.156-0.033,0.28-0.103,0.389
		c-0.069,0.107-0.158,0.188-0.272,0.249c-0.109,0.058-0.238,0.084-0.377,0.084c-0.138,0-0.262-0.026-0.375-0.084
		c-0.115-0.061-0.204-0.142-0.273-0.249C40.437,33.692,40.403,33.568,40.401,33.412 M45.22,31.63l0.217,0.146l-0.641,0.869
		c0.078-0.03,0.158-0.051,0.244-0.051c0.131,0,0.252,0.037,0.355,0.111c0.104,0.067,0.188,0.162,0.244,0.272
		c0.063,0.115,0.094,0.236,0.094,0.368c0,0.148-0.039,0.283-0.107,0.401c-0.072,0.121-0.166,0.212-0.287,0.282
		c-0.119,0.068-0.25,0.104-0.398,0.104c-0.143,0-0.273-0.033-0.395-0.102c-0.119-0.07-0.217-0.161-0.293-0.275
		c-0.072-0.118-0.109-0.246-0.113-0.391c0.004-0.122,0.027-0.229,0.08-0.335c0.047-0.107,0.109-0.205,0.182-0.296L45.22,31.63z
		 M41.151,31.887c-0.11,0.003-0.207,0.04-0.282,0.121c-0.079,0.074-0.122,0.175-0.125,0.293c0,0.064,0.022,0.128,0.063,0.188
		c0.038,0.061,0.089,0.115,0.151,0.155s0.125,0.064,0.193,0.064c0.07,0,0.136-0.024,0.197-0.064c0.063-0.04,0.11-0.095,0.152-0.155
		c0.037-0.061,0.059-0.124,0.063-0.188c-0.004-0.118-0.046-0.219-0.125-0.293C41.359,31.927,41.266,31.89,41.151,31.887
		 M41.151,32.962c-0.124,0.003-0.23,0.05-0.322,0.131c-0.092,0.084-0.135,0.192-0.143,0.319c0.004,0.085,0.024,0.163,0.069,0.229
		c0.044,0.068,0.103,0.122,0.173,0.162c0.068,0.041,0.145,0.064,0.223,0.067c0.08-0.003,0.156-0.026,0.229-0.067
		c0.068-0.04,0.128-0.094,0.17-0.162c0.043-0.066,0.069-0.145,0.069-0.229c-0.005-0.127-0.053-0.235-0.142-0.319
		C41.385,33.012,41.28,32.965,41.151,32.962 M44.937,33.871c0.09-0.003,0.176-0.026,0.252-0.07c0.074-0.044,0.137-0.105,0.186-0.176
		c0.049-0.077,0.072-0.158,0.072-0.249c0-0.098-0.027-0.188-0.074-0.267c-0.049-0.078-0.111-0.138-0.191-0.182
		c-0.076-0.044-0.158-0.064-0.244-0.067c-0.09,0.003-0.174,0.027-0.25,0.07c-0.074,0.047-0.137,0.108-0.186,0.183
		c-0.049,0.077-0.072,0.158-0.074,0.249c0.002,0.142,0.053,0.26,0.15,0.357C44.677,33.814,44.796,33.864,44.937,33.871
		 M43.726,31.954h-0.758l-0.147,0.495l0.167-0.01c0.158,0.003,0.293,0.043,0.406,0.121c0.117,0.077,0.207,0.178,0.27,0.307
		c0.064,0.128,0.096,0.263,0.096,0.414c0,0.172-0.041,0.32-0.119,0.448c-0.08,0.128-0.184,0.227-0.318,0.3
		c-0.135,0.068-0.283,0.104-0.453,0.104c-0.149,0-0.292-0.036-0.423-0.107c-0.131-0.074-0.234-0.179-0.307-0.31l0.221-0.213
		c0.041,0.104,0.113,0.188,0.214,0.256c0.103,0.064,0.21,0.102,0.32,0.104c0.111-0.003,0.207-0.033,0.293-0.084
		c0.09-0.051,0.16-0.125,0.207-0.209c0.053-0.091,0.078-0.192,0.078-0.3c0-0.104-0.025-0.199-0.078-0.286
		c-0.051-0.085-0.119-0.155-0.207-0.206c-0.086-0.051-0.182-0.074-0.287-0.081c-0.085,0-0.168,0.023-0.247,0.061
		c-0.082,0.033-0.148,0.092-0.203,0.155h-0.057l0.369-1.233h0.964V31.954z"/>
	<path fill="#FFFFFF" d="M45.855,43.476l3.074,4.008h-3.164l-2.402-3.765l-0.025,3.765h-2.545v-9.79h3.803
		c0.652,0,1.232,0.107,1.742,0.32c0.508,0.212,0.912,0.539,1.209,0.983c0.293,0.445,0.443,1.015,0.451,1.709
		c-0.004,0.69-0.186,1.291-0.551,1.8C47.083,43.011,46.552,43.335,45.855,43.476 M43.337,39.645v2.439h0.246
		c0.283,0.004,0.561-0.02,0.826-0.081c0.268-0.057,0.488-0.175,0.666-0.35c0.176-0.176,0.266-0.438,0.273-0.793
		c-0.008-0.347-0.098-0.609-0.273-0.784c-0.178-0.176-0.398-0.294-0.666-0.354c-0.266-0.058-0.543-0.084-0.826-0.077H43.337z
		 M51.82,47.486h-2.545V37.7h2.545V47.486z M57.074,39.853v7.634h-2.543v-7.634h-2.105v-2.156h6.75v2.156H57.074z M62.683,45.33
		h4.102v2.156H58.4l4.635-7.634H59.8v-2.156h7.492L62.683,45.33z M23.896,46.283l2.157-3.144l1.06,4.3h2.585l-2.564-10.104
		l-3.244,4.725l-3.24-4.725l-2.564,10.104h2.585l1.06-4.3L23.896,46.283z M34.691,37.372c0.953,0.008,1.833,0.227,2.647,0.647
		c0.815,0.425,1.474,1.012,1.975,1.763c0.504,0.751,0.762,1.621,0.775,2.611c-0.007,1.063-0.241,1.996-0.703,2.805
		c-0.46,0.802-1.095,1.433-1.902,1.891c-0.808,0.455-1.739,0.685-2.792,0.69c-1.052-0.006-1.983-0.235-2.791-0.69
		c-0.809-0.458-1.443-1.089-1.902-1.891c-0.461-0.809-0.697-1.742-0.704-2.805c0.016-0.99,0.273-1.86,0.773-2.611
		c0.504-0.751,1.163-1.338,1.979-1.763C32.859,37.599,33.739,37.38,34.691,37.372"/>
	<path fill="#104C8C" d="M28.571,64.307h0.079c0.26,0,0.648-0.037,0.648,0.33c0,0.334-0.396,0.32-0.628,0.32h-0.1V64.307z
		 M56.064,64.161l-0.537,1.399h0.838l0.207-0.525h1.088l0.199,0.525h0.838l-0.527-1.399h-0.814l0.094,0.267h-0.658l0.092-0.267
		H56.064z M52.697,64.161l1.094,1.399h0.791v-1.399h-0.791v0.22l-0.174-0.22H52.697z M51.55,65.561h0.791v-1.399H51.55V65.561z
		 M47.208,64.161c0.076,0.891,0.758,1.501,1.672,1.501c0.916,0,1.594-0.61,1.674-1.501h-0.83C49.648,64.597,49.3,64.9,48.88,64.9
		c-0.418,0-0.77-0.304-0.842-0.739H47.208z M44.859,64.161v1.399h1.736v-0.664H45.65v-0.735H44.859z M41.819,64.161v1.399h1.728
		v-0.664h-0.938v-0.525H43.5v-0.21H41.819z M38.147,64.161c0.025,0.402,0.181,0.759,0.487,1.035
		c0.313,0.287,0.714,0.444,1.139,0.444c0.244,0,0.435-0.06,0.698-0.138v-0.946c-0.168,0.198-0.425,0.322-0.685,0.322
		c-0.452,0-0.767-0.296-0.813-0.718H38.147z M34.939,64.161v1.399h0.786v-1.166l0.755,1.166h0.981l-0.954-1.24
		c0.138-0.03,0.26-0.081,0.355-0.159H34.939z M31.435,64.161l-0.539,1.399h0.836l0.211-0.525h1.087l0.196,0.525h0.843l-0.529-1.399
		h-0.817l0.093,0.267H32.16l0.09-0.267H31.435z M27.781,64.161v1.399h1.215c0.556,0,1.1-0.209,1.1-0.846
		c0-0.227-0.054-0.415-0.171-0.554H27.781z"/>
	<path fill="#104C8C" d="M28.569,63.131h0.056c0.214,0,0.46,0.017,0.46,0.293c0,0.256-0.217,0.297-0.425,0.297h-0.091V63.131z
		 M35.727,63.131h0.076c0.26,0,0.549,0.051,0.549,0.377c0,0.331-0.289,0.381-0.549,0.381h-0.076V63.131z M56.88,64.161l0.234-0.697
		l0.24,0.697h0.816l-0.617-1.634h-0.859l-0.627,1.634H56.88z M54.58,64.161v-1.634h-0.787v1.634H54.58z M52.339,64.161V63.7
		l0.355,0.461h0.922l-1.277-1.634H51.55v1.634H52.339z M48.037,64.161c-0.012-0.057-0.014-0.11-0.014-0.171
		c0-0.415,0.385-0.799,0.859-0.799c0.469,0,0.855,0.384,0.855,0.799c0,0.061-0.004,0.114-0.014,0.171h0.828
		c0.002-0.057,0.006-0.113,0.006-0.175c0-0.916-0.803-1.56-1.676-1.56c-0.877,0-1.68,0.644-1.68,1.56
		c0,0.062,0.002,0.118,0.006,0.175H48.037z M45.648,62.527h-0.789v1.634h0.789V62.527z M43.498,64.161V63.7h-0.889v-0.506h0.938
		v-0.667h-1.724v1.634H43.498z M38.971,64.161c-0.004-0.036-0.004-0.073-0.004-0.107c0-0.472,0.325-0.842,0.808-0.842
		c0.27,0,0.532,0.117,0.694,0.333v-0.943c-0.234-0.098-0.467-0.155-0.722-0.155c-0.428,0-0.855,0.186-1.155,0.492
		c-0.29,0.297-0.445,0.694-0.445,1.112c0,0.033,0,0.07,0.003,0.11H38.971z M36.863,64.161c0.204-0.161,0.311-0.417,0.311-0.7
		c0-0.65-0.455-0.934-1.057-0.934h-1.18v1.634H36.863z M32.252,64.161l0.234-0.697l0.237,0.697h0.815l-0.614-1.634h-0.863
		l-0.629,1.634H32.252z M29.922,64.161c-0.1-0.113-0.248-0.191-0.448-0.218c0.247-0.132,0.335-0.351,0.335-0.627
		c0-0.58-0.362-0.789-0.901-0.789h-1.129v1.634H29.922z"/>
	<path fill="#104C8C" d="M31.98,42.576c0-1.521,1.235-2.753,2.756-2.753c1.523,0,2.759,1.232,2.759,2.753
		c0,1.523-1.235,2.754-2.759,2.754C33.215,45.33,31.98,44.1,31.98,42.576"/>
	<polygon fill="#F6D900" points="61.773,40.544 57.97,40.544 59.089,44.962 	"/>
</g>
</svg>
