<?xml version="1.0" encoding="UTF-8" standalone="no"?>
<!DOCTYPE svg PUBLIC "-//W3C//DTD SVG 1.1//EN" "http://www.w3.org/Graphics/SVG/1.1/DTD/svg11.dtd">
<svg width="100%" height="100%" viewBox="0 0 2481 1455" version="1.1" xmlns="http://www.w3.org/2000/svg" xmlns:xlink="http://www.w3.org/1999/xlink" xml:space="preserve" xmlns:serif="http://www.serif.com/" style="fill-rule:evenodd;clip-rule:evenodd;stroke-linejoin:round;stroke-miterlimit:1.41421;">
    <g id="Layer-1" serif:id="Layer 1" transform="matrix(4.16667,0,0,4.16667,0,0)">
        <g transform="matrix(1,0,0,1,470.634,228.874)">
            <path d="M0,-84.847C-12.209,-82.231 -24.041,-82.775 -35.855,-85.193C-37.995,-82 -41.211,-79.516 -45.23,-78.479C-52.675,-76.552 -60.213,-80.139 -63.638,-86.668C-65.878,-84.405 -68.685,-82.652 -71.992,-81.796C-81.044,-79.464 -90.183,-84.343 -93.55,-92.805C-94.261,-92.506 -94.979,-92.193 -95.751,-91.992C-104.435,-89.748 -113.288,-94.97 -115.529,-103.653C-116.478,-107.33 -116.03,-111.006 -114.607,-114.228C-142.173,-124.081 -172.886,-130.587 -209.919,-122.652C-303.101,-102.678 -328.192,-14.511 -328.192,-14.511L-327.658,-12.034C-264.165,-25.64 -210.917,45.74 -117.736,25.771C-24.556,5.801 0.533,-82.37 0.533,-82.37C0.547,-84.313 0,-84.847 0,-84.847" style="fill:rgb(160,82,28);fill-rule:nonzero;"/>
        </g>
        <g transform="matrix(1,0,0,1,229.781,202.111)">
            <path d="M0,-43.048C2.202,-43.124 4.148,-42.953 5.848,-42.528C7.544,-42.103 9.05,-41.467 10.364,-40.618C10.592,-40.462 10.813,-40.327 11.03,-40.209C11.241,-40.097 11.442,-39.938 11.636,-39.748C11.711,-39.672 11.79,-39.603 11.866,-39.544C11.945,-39.49 12.021,-39.418 12.1,-39.342C12.173,-39.263 12.275,-39.178 12.387,-39.082C12.502,-38.987 12.598,-38.878 12.676,-38.766C12.832,-38.569 12.986,-38.377 13.141,-38.186C13.292,-37.991 13.447,-37.801 13.602,-37.61C13.754,-37.412 13.886,-37.208 13.981,-37C14.077,-36.789 14.186,-36.585 14.297,-36.394C14.647,-35.851 14.917,-35.245 15.108,-34.566C15.299,-33.89 15.493,-33.189 15.688,-32.458C15.767,-32.148 15.793,-31.812 15.773,-31.439C15.754,-31.073 15.688,-30.794 15.569,-30.603C15.378,-30.332 15.072,-30.178 14.647,-30.141C14.222,-30.098 13.777,-30.082 13.316,-30.082L12.795,-30.082C12.641,-30.082 12.486,-30.098 12.328,-30.141C12.136,-30.178 11.975,-30.2 11.837,-30.2C11.702,-30.2 11.557,-30.237 11.405,-30.313C11.326,-30.349 11.25,-30.399 11.171,-30.458C11.095,-30.517 11.017,-30.583 10.94,-30.662C10.71,-31.008 10.545,-31.433 10.446,-31.937C10.351,-32.434 10.209,-32.879 10.015,-33.268C9.36,-34.806 8.431,-35.969 7.238,-36.74C6.348,-37.356 5.285,-37.821 4.052,-38.13C3.822,-38.202 3.591,-38.252 3.358,-38.272C3.127,-38.291 2.896,-38.341 2.665,-38.416L2.202,-38.416C1.889,-38.496 1.581,-38.532 1.275,-38.532L0.35,-38.532C-1.657,-38.532 -3.336,-38.222 -4.687,-37.61C-5.462,-37.297 -6.156,-36.885 -6.772,-36.364C-7.388,-35.841 -7.853,-35.195 -8.162,-34.425C-8.314,-34.111 -8.42,-33.795 -8.479,-33.468C-8.535,-33.139 -8.604,-32.783 -8.683,-32.398C-8.759,-32.088 -8.785,-31.739 -8.769,-31.357C-8.749,-30.968 -8.703,-30.642 -8.624,-30.372C-8.354,-29.483 -8.015,-28.811 -7.612,-28.343C-7.204,-27.882 -6.634,-27.44 -5.903,-27.012C-5.053,-26.475 -4.107,-26.067 -3.066,-25.797C-2.022,-25.53 -0.945,-25.239 0.175,-24.93C0.521,-24.851 0.87,-24.795 1.216,-24.755C1.565,-24.719 1.911,-24.64 2.26,-24.528C2.797,-24.37 3.367,-24.245 3.967,-24.15C4.566,-24.054 5.132,-23.906 5.673,-23.715C5.828,-23.678 5.963,-23.649 6.081,-23.629C6.193,-23.606 6.329,-23.58 6.484,-23.54C6.829,-23.461 7.179,-23.379 7.524,-23.283C7.874,-23.184 8.22,-23.079 8.565,-22.963C9.34,-22.693 10.094,-22.404 10.826,-22.094C11.557,-21.784 12.251,-21.418 12.911,-20.993C13.754,-20.453 14.521,-19.828 15.197,-19.112C15.869,-18.401 16.419,-17.561 16.845,-16.596C16.999,-16.25 17.114,-15.901 17.193,-15.554C17.268,-15.206 17.348,-14.836 17.423,-14.455C17.499,-14.259 17.539,-14.04 17.539,-13.789C17.539,-13.535 17.576,-13.299 17.654,-13.064L17.654,-11.907C17.618,-11.753 17.599,-11.595 17.599,-11.444L17.599,-10.979C17.52,-10.673 17.474,-10.357 17.45,-10.027C17.434,-9.697 17.365,-9.378 17.253,-9.072C17.055,-8.492 16.845,-7.931 16.614,-7.391C16.383,-6.854 16.09,-6.354 15.744,-5.886C15.088,-4.878 14.258,-4.035 13.257,-3.336C12.251,-2.651 11.171,-2.032 10.015,-1.491C9.626,-1.334 9.251,-1.202 8.885,-1.083C8.519,-0.965 8.124,-0.846 7.699,-0.74C7.274,-0.583 6.829,-0.476 6.368,-0.418C5.907,-0.359 5.442,-0.272 4.978,-0.161C4.787,-0.121 4.583,-0.101 4.372,-0.101C4.158,-0.101 3.954,-0.082 3.763,-0.042C3.532,-0.042 3.301,-0.029 3.067,-0.016C2.837,0.011 2.607,0.018 2.372,0.018C2.182,0.05 1.901,0.076 1.536,0.076C1.17,0.076 0.887,0.05 0.696,0.018L0.059,0.018C-0.329,-0.055 -0.712,-0.101 -1.1,-0.101C-1.485,-0.101 -1.851,-0.134 -2.197,-0.213C-2.352,-0.253 -2.507,-0.279 -2.664,-0.305C-2.816,-0.319 -2.987,-0.351 -3.182,-0.384C-3.61,-0.463 -4.002,-0.543 -4.371,-0.622C-4.736,-0.701 -5.112,-0.812 -5.498,-0.965C-7.388,-1.584 -8.982,-2.374 -10.271,-3.336C-11.566,-4.305 -12.672,-5.563 -13.602,-7.105C-13.911,-7.605 -14.171,-8.127 -14.382,-8.667C-14.596,-9.207 -14.797,-9.786 -14.992,-10.403C-15.067,-10.633 -15.117,-10.864 -15.133,-11.097C-15.153,-11.328 -15.202,-11.542 -15.278,-11.733C-15.357,-12.083 -15.394,-12.478 -15.394,-12.919C-15.394,-13.364 -15.301,-13.68 -15.107,-13.878C-14.913,-14.149 -14.596,-14.3 -14.151,-14.339C-13.71,-14.376 -13.272,-14.398 -12.847,-14.398L-12.357,-14.398C-12.182,-14.398 -12.036,-14.376 -11.925,-14.339C-11.73,-14.3 -11.575,-14.289 -11.457,-14.309C-11.345,-14.329 -11.21,-14.3 -11.055,-14.224C-10.785,-14.069 -10.61,-13.914 -10.534,-13.759C-10.416,-13.565 -10.35,-13.364 -10.33,-13.153C-10.314,-12.939 -10.265,-12.715 -10.186,-12.488C-10.109,-12.215 -10.044,-11.944 -9.984,-11.675C-9.925,-11.404 -9.839,-11.134 -9.721,-10.864C-9.069,-9.207 -8.084,-7.892 -6.772,-6.933C-6.113,-6.426 -5.402,-6.024 -4.628,-5.715C-3.857,-5.405 -3.03,-5.116 -2.14,-4.845C-1.831,-4.773 -1.525,-4.707 -1.215,-4.667C-0.905,-4.634 -0.599,-4.594 -0.286,-4.561C-0.213,-4.561 -0.111,-4.549 0,-4.529C0.116,-4.509 0.235,-4.496 0.35,-4.496C0.504,-4.457 0.686,-4.457 0.9,-4.496C1.111,-4.536 1.312,-4.516 1.506,-4.443C1.661,-4.403 1.882,-4.384 2.171,-4.384C2.461,-4.384 2.702,-4.417 2.896,-4.496L3.301,-4.496C3.493,-4.536 3.687,-4.561 3.878,-4.561C4.072,-4.561 4.267,-4.575 4.458,-4.614C4.573,-4.654 4.679,-4.661 4.777,-4.641C4.873,-4.628 4.997,-4.654 5.152,-4.733C5.459,-4.812 5.788,-4.878 6.134,-4.93C6.484,-4.99 6.813,-5.076 7.123,-5.194C8.124,-5.616 9.02,-6.11 9.811,-6.67C10.604,-7.23 11.211,-7.991 11.636,-8.953C11.751,-9.266 11.85,-9.572 11.925,-9.883C12.001,-10.188 12.077,-10.498 12.156,-10.804C12.232,-11.117 12.275,-11.483 12.275,-11.907C12.275,-12.333 12.232,-12.678 12.156,-12.949C12.077,-13.14 12.041,-13.304 12.041,-13.44C12.041,-13.578 12.001,-13.723 11.925,-13.878C11.695,-14.53 11.382,-15.08 11,-15.525C10.614,-15.97 10.15,-16.382 9.61,-16.77C8.799,-17.347 7.89,-17.811 6.889,-18.16C5.884,-18.506 4.837,-18.802 3.732,-19.053C2.636,-19.304 1.506,-19.551 0.35,-19.778C-0.807,-20.012 -1.927,-20.282 -3.01,-20.592C-3.626,-20.783 -4.246,-20.947 -4.862,-21.082C-5.478,-21.214 -6.058,-21.402 -6.598,-21.629C-6.677,-21.669 -6.733,-21.689 -6.772,-21.689C-6.809,-21.689 -6.868,-21.708 -6.947,-21.748C-7.329,-21.9 -7.717,-22.054 -8.103,-22.209C-8.485,-22.364 -8.858,-22.558 -9.2,-22.789C-10.089,-23.329 -10.9,-23.915 -11.631,-24.551C-12.366,-25.193 -12.943,-26.01 -13.368,-27.012C-13.565,-27.361 -13.697,-27.737 -13.776,-28.146C-13.852,-28.547 -13.947,-28.962 -14.063,-29.387C-14.063,-29.542 -14.076,-29.677 -14.092,-29.792C-14.112,-29.908 -14.122,-30.026 -14.122,-30.141C-14.238,-30.603 -14.26,-31.189 -14.181,-31.907C-14.105,-32.619 -14.007,-33.169 -13.888,-33.554C-13.776,-33.979 -13.667,-34.384 -13.572,-34.77C-13.476,-35.155 -13.351,-35.524 -13.196,-35.87C-12.656,-37.026 -11.961,-38.005 -11.111,-38.796C-10.265,-39.586 -9.318,-40.308 -8.275,-40.963C-8.199,-41.042 -8.103,-41.088 -7.988,-41.108C-7.87,-41.125 -7.774,-41.174 -7.694,-41.253C-6.852,-41.678 -5.863,-42.044 -4.743,-42.353C-4.437,-42.429 -4.15,-42.498 -3.874,-42.558C-3.61,-42.613 -3.316,-42.683 -3.01,-42.758C-2.701,-42.834 -2.365,-42.874 -1.996,-42.874C-1.627,-42.874 -1.291,-42.91 -0.981,-42.989C-0.866,-43.028 -0.694,-43.028 -0.46,-42.989C-0.23,-42.953 -0.075,-42.969 0,-43.048" style="fill:rgb(255,244,203);fill-rule:nonzero;"/>
        </g>
        <g transform="matrix(1,0,0,1,267.346,201.189)">
            <path d="M0,-30.435C2.432,-30.511 4.378,-30.181 5.848,-29.45C7.311,-28.716 8.49,-27.618 9.376,-26.149C9.609,-25.764 9.788,-25.349 9.926,-24.904C10.058,-24.463 10.186,-24.008 10.301,-23.547C10.496,-22.815 10.611,-22.018 10.65,-21.172C10.686,-20.322 10.706,-19.456 10.706,-18.569L10.706,-3.343C10.706,-2.691 10.696,-2.033 10.681,-1.373C10.657,-0.714 10.4,-0.292 9.895,-0.101C9.705,-0.029 9.501,0.023 9.29,0.044C9.076,0.063 8.855,0.076 8.622,0.076C8.124,0.076 7.64,0.063 7.175,0.044C6.714,0.023 6.385,-0.148 6.193,-0.451C5.999,-0.714 5.9,-1.071 5.9,-1.492L5.9,-2.77L5.9,-7.745L5.9,-17.179C5.9,-18.22 5.884,-19.251 5.848,-20.275C5.805,-21.3 5.631,-22.173 5.324,-22.911C5.015,-23.679 4.554,-24.308 3.938,-24.792C3.318,-25.273 2.606,-25.648 1.792,-25.918C1.561,-25.994 1.317,-26.043 1.067,-26.063C0.817,-26.08 0.577,-26.13 0.347,-26.209C0.152,-26.249 -0.148,-26.254 -0.55,-26.235C-0.958,-26.218 -1.238,-26.189 -1.39,-26.149C-1.545,-26.073 -1.68,-26.043 -1.795,-26.063C-1.91,-26.08 -2.045,-26.073 -2.204,-26.038C-2.701,-25.918 -3.175,-25.794 -3.616,-25.658C-4.062,-25.523 -4.48,-25.342 -4.862,-25.108C-5.017,-25.033 -5.152,-24.954 -5.271,-24.874C-5.382,-24.798 -5.521,-24.72 -5.672,-24.647C-7.026,-23.679 -8.008,-22.233 -8.624,-20.306C-8.743,-19.996 -8.821,-19.677 -8.858,-19.347C-8.894,-19.024 -8.953,-18.701 -9.032,-18.395C-9.108,-18.204 -9.128,-18.016 -9.085,-17.845C-9.049,-17.67 -9.069,-17.509 -9.145,-17.354L-9.145,-16.135C-9.187,-16.022 -9.194,-15.885 -9.174,-15.729C-9.157,-15.578 -9.145,-15.403 -9.145,-15.209L-9.145,-1.518C-9.145,-1.078 -9.243,-0.714 -9.435,-0.451C-9.629,-0.148 -9.965,0.023 -10.449,0.044C-10.93,0.063 -11.421,0.076 -11.925,0.076C-12.234,0.076 -12.524,0.05 -12.794,0.01C-13.061,-0.029 -13.295,-0.122 -13.49,-0.28C-13.799,-0.464 -13.951,-0.833 -13.951,-1.373L-13.951,-2.941L-13.951,-9.77L-13.951,-23.777L-13.951,-27.309L-13.951,-28.35C-13.951,-28.696 -13.872,-28.966 -13.72,-29.16C-13.602,-29.391 -13.411,-29.545 -13.14,-29.624C-12.986,-29.661 -12.765,-29.697 -12.475,-29.74C-12.185,-29.776 -11.889,-29.8 -11.579,-29.8C-11.27,-29.8 -10.973,-29.776 -10.679,-29.74C-10.39,-29.697 -10.189,-29.641 -10.074,-29.565C-9.648,-29.295 -9.458,-28.959 -9.494,-28.554C-9.534,-28.145 -9.474,-27.691 -9.319,-27.194C-9.243,-26.96 -9.085,-26.769 -8.858,-26.614C-8.397,-26.575 -8.018,-26.749 -7.729,-27.134C-7.438,-27.52 -7.138,-27.83 -6.832,-28.06C-6.292,-28.445 -5.742,-28.805 -5.182,-29.134C-4.621,-29.457 -3.977,-29.74 -3.241,-29.97C-2.935,-30.086 -2.599,-30.165 -2.227,-30.201C-1.861,-30.241 -1.508,-30.297 -1.159,-30.375C-0.965,-30.415 -0.774,-30.435 -0.579,-30.435L0,-30.435Z" style="fill:rgb(255,244,203);fill-rule:nonzero;"/>
        </g>
        <g transform="matrix(1,0,0,1,303.58,179.829)">
            <path d="M0,12.746C0.23,12.209 0.358,11.58 0.375,10.865C0.395,10.153 0.405,9.409 0.405,8.638C0.405,8.213 0.382,7.827 0.346,7.481C0.309,7.133 0.154,6.866 -0.116,6.671C-0.234,6.596 -0.505,6.553 -0.93,6.553C-1.006,6.631 -1.141,6.671 -1.332,6.671C-1.526,6.671 -1.7,6.707 -1.852,6.787C-2.162,6.866 -2.511,6.941 -2.894,7.017C-3.281,7.096 -3.667,7.172 -4.053,7.248C-4.171,7.248 -4.296,7.261 -4.428,7.277C-4.566,7.297 -4.708,7.307 -4.863,7.307C-5.439,7.461 -6.068,7.548 -6.744,7.567C-7.422,7.587 -8.045,7.673 -8.625,7.827C-8.932,7.906 -9.215,7.973 -9.465,8.031C-9.715,8.088 -9.995,8.157 -10.305,8.232C-10.921,8.427 -11.5,8.667 -12.041,8.955C-12.581,9.247 -13.046,9.603 -13.432,10.029C-13.813,10.452 -14.107,10.964 -14.298,11.56C-14.492,12.16 -14.567,12.884 -14.528,13.73C-14.528,14.12 -14.462,14.476 -14.327,14.802C-14.192,15.131 -14.027,15.428 -13.833,15.704C-13.526,16.126 -13.118,16.481 -12.621,16.771C-12.116,17.061 -11.58,17.298 -10.997,17.496C-10.806,17.536 -10.614,17.549 -10.417,17.549C-10.227,17.549 -10.035,17.575 -9.841,17.615C-9.573,17.687 -9.231,17.733 -8.829,17.753C-8.424,17.772 -8.088,17.746 -7.814,17.668C-7.584,17.589 -7.35,17.561 -7.123,17.582C-6.889,17.601 -6.655,17.575 -6.428,17.496C-6.118,17.417 -5.818,17.357 -5.528,17.325C-5.238,17.285 -4.962,17.206 -4.691,17.088C-3.572,16.626 -2.613,16.066 -1.822,15.414C-1.031,14.756 -0.425,13.866 0,12.746M8.278,19.17C8.39,19.789 8.338,20.303 8.106,20.712C7.87,21.113 7.566,21.41 7.171,21.607C6.986,21.68 6.776,21.719 6.564,21.719C6.354,21.719 6.13,21.753 5.906,21.831C5.05,22.029 4.216,21.976 3.383,21.686C2.556,21.403 1.985,21.04 1.677,20.619C1.485,20.349 1.311,20.026 1.156,19.664C1.004,19.302 0.811,18.998 0.579,18.767C0.5,18.689 0.414,18.616 0.315,18.537C0.22,18.458 0.095,18.444 -0.06,18.477C-0.484,18.59 -0.88,18.808 -1.246,19.117C-1.611,19.42 -1.967,19.697 -2.313,19.921C-2.817,20.237 -3.357,20.514 -3.938,20.764C-4.518,21.015 -5.133,21.238 -5.788,21.435C-6.178,21.542 -6.589,21.62 -7.034,21.66C-7.478,21.699 -7.913,21.753 -8.335,21.831C-8.529,21.871 -8.694,21.897 -8.829,21.897L-9.261,21.897C-9.686,21.97 -10.095,21.97 -10.477,21.897L-10.997,21.897C-11.191,21.851 -11.383,21.831 -11.58,21.831C-11.77,21.831 -11.945,21.799 -12.101,21.719C-12.252,21.68 -12.377,21.674 -12.473,21.686C-12.571,21.713 -12.677,21.699 -12.795,21.66C-13.102,21.581 -13.411,21.515 -13.718,21.456C-14.027,21.403 -14.317,21.317 -14.588,21.199C-15.744,20.698 -16.683,20.132 -17.395,19.493C-18.109,18.853 -18.695,17.957 -19.157,16.798C-19.506,15.955 -19.681,14.927 -19.681,13.73L-19.681,12.519C-19.641,12.321 -19.611,12.123 -19.595,11.909C-19.575,11.698 -19.546,11.477 -19.506,11.244C-19.354,10.818 -19.199,10.394 -19.044,9.969C-18.894,9.547 -18.695,9.159 -18.469,8.813C-17.773,7.692 -16.828,6.866 -15.629,6.325C-14.433,5.782 -13.118,5.301 -11.691,4.875C-11.154,4.721 -10.592,4.606 -10.015,4.53C-9.436,4.451 -8.855,4.355 -8.279,4.24C-8.009,4.164 -7.745,4.122 -7.495,4.122C-7.248,4.122 -6.969,4.086 -6.655,4.006C-6.388,3.93 -6.118,3.881 -5.848,3.865C-5.577,3.845 -5.288,3.795 -4.978,3.719C-4.013,3.485 -3.11,3.285 -2.26,3.11C-1.411,2.935 -0.731,2.504 -0.234,1.809C0,1.499 0.19,1.104 0.346,0.623C0.5,0.139 0.5,-0.389 0.346,-0.971C0.115,-1.897 -0.221,-2.628 -0.666,-3.169C-1.11,-3.709 -1.737,-4.134 -2.547,-4.444C-3.008,-4.634 -3.559,-4.77 -4.197,-4.849C-4.833,-4.924 -5.499,-4.964 -6.193,-4.964C-6.889,-4.964 -7.563,-4.924 -8.22,-4.849C-8.879,-4.77 -9.436,-4.654 -9.896,-4.503C-10.555,-4.269 -11.191,-3.94 -11.808,-3.515C-12.116,-3.288 -12.4,-2.987 -12.647,-2.619C-12.897,-2.253 -13.118,-1.857 -13.313,-1.433C-13.432,-1.126 -13.536,-0.797 -13.633,-0.448C-13.73,-0.102 -13.915,0.168 -14.179,0.359C-14.337,0.478 -14.598,0.563 -14.963,0.623C-15.329,0.679 -15.707,0.708 -16.09,0.708C-16.478,0.708 -16.853,0.679 -17.223,0.623C-17.589,0.563 -17.849,0.478 -18.001,0.359C-18.155,0.245 -18.27,0.053 -18.35,-0.217C-18.425,-0.487 -18.425,-0.777 -18.35,-1.083C-18.234,-1.587 -18.109,-2.062 -17.971,-2.503C-17.839,-2.948 -17.678,-3.383 -17.479,-3.808C-16.749,-5.158 -15.819,-6.21 -14.703,-6.96C-13.586,-7.714 -12.196,-8.321 -10.535,-8.786C-10.146,-8.861 -9.752,-8.92 -9.35,-8.96C-8.944,-8.996 -8.529,-9.055 -8.104,-9.134C-7.949,-9.171 -7.699,-9.181 -7.35,-9.157C-7.004,-9.141 -6.793,-9.171 -6.714,-9.247C-4.013,-9.283 -1.661,-8.976 0.346,-8.321C2.352,-7.665 3.761,-6.411 4.568,-4.559C4.917,-3.785 5.121,-2.888 5.181,-1.868C5.234,-0.842 5.26,0.227 5.26,1.344L5.26,14.136C5.26,14.677 5.287,15.196 5.326,15.704C5.366,16.204 5.478,16.606 5.668,16.917C5.866,17.186 6.117,17.378 6.426,17.496C6.776,17.647 7.099,17.753 7.408,17.812C7.711,17.865 7.948,18.049 8.106,18.366C8.179,18.477 8.219,18.59 8.219,18.708C8.219,18.827 8.238,18.985 8.278,19.17" style="fill:rgb(255,244,203);fill-rule:nonzero;"/>
        </g>
        <g transform="matrix(1,0,0,1,318.453,201.193)">
            <path d="M0,-41.261C0.541,-41.261 1.107,-41.25 1.706,-41.23C2.307,-41.214 2.721,-41.046 2.951,-40.74C3.103,-40.549 3.195,-40.295 3.215,-39.986C3.234,-39.679 3.241,-39.334 3.241,-38.945L3.241,-21.119C3.241,-20.925 3.234,-20.724 3.215,-20.513C3.195,-20.296 3.208,-20.094 3.241,-19.9L3.241,-19.44C3.241,-19.05 3.301,-18.728 3.413,-18.458C3.459,-18.339 3.512,-18.254 3.591,-18.194C3.67,-18.134 3.742,-18.069 3.821,-17.99C4.17,-17.953 4.434,-18.003 4.605,-18.134C4.776,-18.273 4.961,-18.418 5.152,-18.572C5.343,-18.728 5.501,-18.879 5.619,-19.034C5.732,-19.189 5.863,-19.324 6.015,-19.44C6.331,-19.633 6.595,-19.855 6.832,-20.104C7.062,-20.355 7.312,-20.615 7.583,-20.885C7.774,-21.08 7.959,-21.255 8.137,-21.406C8.308,-21.561 8.493,-21.735 8.684,-21.926C8.796,-22.006 8.901,-22.101 9.006,-22.219C9.099,-22.335 9.178,-22.431 9.257,-22.506C9.336,-22.585 9.401,-22.631 9.435,-22.651C9.474,-22.671 9.533,-22.717 9.612,-22.796C9.764,-22.988 9.916,-23.155 10.074,-23.291C10.225,-23.425 10.403,-23.567 10.594,-23.722C10.673,-23.837 10.771,-23.956 10.877,-24.07C10.996,-24.186 11.114,-24.301 11.233,-24.416C11.576,-24.687 11.892,-24.977 12.181,-25.286C12.472,-25.592 12.787,-25.886 13.144,-26.153C13.257,-26.268 13.375,-26.394 13.486,-26.531C13.605,-26.663 13.725,-26.788 13.835,-26.904C14.329,-27.293 14.776,-27.717 15.167,-28.179C15.548,-28.64 16.017,-29.049 16.557,-29.394C16.867,-29.589 17.256,-29.714 17.743,-29.774C18.223,-29.829 18.758,-29.856 19.338,-29.856C19.521,-29.856 19.732,-29.869 19.944,-29.885C20.154,-29.906 20.339,-29.899 20.489,-29.856L21.13,-29.856C21.433,-29.779 21.69,-29.714 21.881,-29.654C22.071,-29.599 22.17,-29.394 22.17,-29.049C22.091,-28.97 22.037,-28.874 22.025,-28.759C22.006,-28.64 21.96,-28.545 21.881,-28.468C21.801,-28.354 21.696,-28.238 21.564,-28.12C21.425,-28.004 21.3,-27.909 21.182,-27.833C21.102,-27.754 21.062,-27.695 21.036,-27.658C21.022,-27.622 20.971,-27.563 20.892,-27.484C20.739,-27.408 20.608,-27.299 20.489,-27.168C20.378,-27.029 20.26,-26.927 20.141,-26.848C20.029,-26.729 19.917,-26.627 19.798,-26.531C19.679,-26.433 19.588,-26.327 19.509,-26.213C19.191,-25.982 18.908,-25.728 18.639,-25.462C18.369,-25.191 18.079,-24.937 17.769,-24.707C17.689,-24.628 17.599,-24.532 17.479,-24.416C17.36,-24.301 17.27,-24.186 17.189,-24.07C16.808,-23.801 16.459,-23.501 16.147,-23.172C15.845,-22.842 15.49,-22.543 15.107,-22.276C15.028,-22.16 14.936,-22.051 14.816,-21.956C14.699,-21.86 14.607,-21.752 14.527,-21.64C14.329,-21.486 14.158,-21.327 14.014,-21.175C13.855,-21.021 13.685,-20.865 13.486,-20.711C13.296,-20.559 13.11,-20.395 12.934,-20.22C12.762,-20.046 12.616,-19.865 12.504,-19.673C12.426,-19.591 12.327,-19.459 12.208,-19.268C12.103,-19.074 12.077,-18.879 12.156,-18.685C12.234,-18.26 12.379,-17.914 12.591,-17.644C12.801,-17.374 12.999,-17.087 13.197,-16.774C13.506,-16.349 13.79,-15.917 14.067,-15.476C14.329,-15.031 14.607,-14.596 14.877,-14.174C15.957,-12.587 17.018,-11.026 18.059,-9.484C19.101,-7.94 20.141,-6.358 21.182,-4.738C21.419,-4.434 21.629,-4.117 21.821,-3.815C22.013,-3.498 22.224,-3.195 22.461,-2.886C22.611,-2.656 22.763,-2.431 22.921,-2.22C23.079,-2.009 23.21,-1.766 23.329,-1.495C23.482,-1.192 23.541,-0.908 23.501,-0.652C23.462,-0.402 23.29,-0.243 22.98,-0.164C22.79,-0.085 22.553,-0.046 22.289,-0.046L21.531,-0.046C20.998,-0.046 20.444,-0.039 19.883,-0.02C19.324,0 18.876,-0.072 18.52,-0.224C18.019,-0.454 17.57,-0.908 17.162,-1.588C16.754,-2.26 16.397,-2.807 16.096,-3.235C15.2,-4.585 14.329,-5.904 13.486,-7.197C12.637,-8.49 11.772,-9.79 10.877,-11.105C10.535,-11.642 10.199,-12.176 9.869,-12.696C9.54,-13.216 9.178,-13.746 8.796,-14.287C8.684,-14.438 8.519,-14.613 8.308,-14.811C8.097,-15.002 7.833,-15.061 7.53,-14.982C7.215,-14.906 6.951,-14.761 6.74,-14.547C6.529,-14.336 6.311,-14.132 6.081,-13.942C5.883,-13.786 5.699,-13.611 5.527,-13.421C5.357,-13.23 5.172,-13.055 4.975,-12.9C4.553,-12.587 4.196,-12.251 3.907,-11.885C3.617,-11.516 3.413,-11.049 3.301,-10.469C3.301,-10.311 3.287,-10.156 3.274,-10.004C3.248,-9.85 3.241,-9.695 3.241,-9.54C3.208,-9.349 3.195,-9.115 3.215,-8.845C3.234,-8.574 3.241,-8.327 3.241,-8.094L3.241,-1.785C3.241,-1.245 3.143,-0.823 2.951,-0.514C2.76,-0.243 2.431,-0.098 1.97,-0.072C1.509,-0.06 1.021,-0.046 0.521,-0.046L-0.112,-0.046C-0.31,-0.046 -0.494,-0.085 -0.691,-0.164C-1.153,-0.323 -1.417,-0.645 -1.477,-1.153C-1.535,-1.654 -1.561,-2.227 -1.561,-2.886L-1.561,-9.6L-1.561,-32.751L-1.561,-38.194C-1.561,-38.618 -1.574,-39.063 -1.588,-39.524C-1.614,-39.986 -1.522,-40.354 -1.331,-40.625C-1.18,-40.894 -0.89,-41.089 -0.461,-41.201C-0.389,-41.244 -0.31,-41.25 -0.23,-41.23C-0.151,-41.214 -0.079,-41.221 0,-41.261" style="fill:rgb(255,244,203);fill-rule:nonzero;"/>
        </g>
        <g transform="matrix(1,0,0,1,351.797,162.711)">
            <path d="M0,35.655C0,36.037 0.007,36.432 0.027,36.842C0.04,37.25 -0.039,37.566 -0.237,37.797C-0.357,38.027 -0.526,38.173 -0.751,38.231C-0.986,38.29 -1.258,38.356 -1.567,38.435L-2.438,38.435C-2.939,38.435 -3.372,38.409 -3.741,38.344C-4.104,38.29 -4.387,38.106 -4.573,37.797C-4.73,37.566 -4.809,37.262 -4.809,36.893L-4.809,35.826L-4.809,11.344L-4.809,10.098C-4.809,9.693 -4.716,9.374 -4.52,9.146C-4.4,8.952 -4.25,8.837 -4.058,8.797C-3.86,8.758 -3.649,8.702 -3.418,8.626C-3.347,8.626 -3.254,8.633 -3.156,8.652C-3.064,8.672 -2.978,8.662 -2.899,8.626C-2.398,8.626 -1.884,8.633 -1.363,8.652C-0.844,8.672 -0.487,8.837 -0.289,9.146C-0.105,9.374 0,9.673 0,10.039L0,35.655ZM-4.289,2.834C-4.598,2.604 -4.756,2.192 -4.783,1.593C-4.795,0.992 -4.809,0.407 -4.809,-0.173L-4.809,-1.158C-4.809,-1.504 -4.75,-1.797 -4.637,-2.025C-4.48,-2.338 -4.177,-2.565 -3.709,-2.72C-3.63,-2.762 -3.545,-2.769 -3.451,-2.749C-3.353,-2.733 -3.268,-2.74 -3.189,-2.78C-2.528,-2.78 -1.91,-2.762 -1.331,-2.72C-0.751,-2.683 -0.368,-2.449 -0.178,-2.025C-0.066,-1.797 0,-1.517 0,-1.187L0,-0.173C0,0.522 -0.012,1.178 -0.039,1.79C-0.052,2.412 -0.316,2.815 -0.816,3.006C-1.015,3.085 -1.212,3.125 -1.423,3.125L-2.088,3.125L-3.307,3.125C-3.69,3.125 -4.019,3.029 -4.289,2.834" style="fill:rgb(255,244,203);fill-rule:nonzero;"/>
        </g>
        <g transform="matrix(1,0,0,1,368.637,201.795)">
            <path d="M0,-31.153C2.782,-31.197 5.113,-30.873 6.997,-30.201C8.896,-29.526 10.358,-28.34 11.398,-26.644C11.676,-26.215 11.886,-25.781 12.038,-25.339C12.19,-24.894 12.348,-24.404 12.498,-23.863C12.577,-23.59 12.599,-23.313 12.56,-23.027C12.52,-22.733 12.467,-22.512 12.387,-22.355C12.308,-22.279 12.215,-22.213 12.098,-22.156C11.979,-22.097 11.886,-22.031 11.807,-21.952C11.61,-21.877 11.426,-21.857 11.228,-21.893C11.029,-21.929 10.846,-21.929 10.647,-21.893C10.338,-21.818 9.936,-21.808 9.436,-21.863C8.936,-21.923 8.578,-22.008 8.395,-22.127C8.077,-22.318 7.881,-22.578 7.788,-22.907C7.683,-23.234 7.538,-23.553 7.354,-23.863C6.997,-24.479 6.523,-25.039 5.905,-25.54C5.482,-25.846 5.016,-26.08 4.514,-26.235C4.013,-26.386 3.474,-26.541 2.894,-26.696C2.703,-26.776 2.505,-26.804 2.313,-26.785C2.122,-26.765 1.925,-26.776 1.74,-26.815C1.502,-26.89 1.213,-26.93 0.87,-26.93C0.522,-26.93 0.232,-26.89 0,-26.815L-0.349,-26.815C-0.539,-26.776 -0.737,-26.746 -0.929,-26.729C-1.119,-26.709 -1.316,-26.679 -1.502,-26.644C-2.511,-26.41 -3.333,-26.08 -3.991,-25.655C-4.65,-25.23 -5.093,-24.519 -5.322,-23.517C-5.401,-23.247 -5.414,-22.974 -5.356,-22.703C-5.297,-22.434 -5.231,-22.203 -5.152,-22.008C-4.92,-21.432 -4.637,-21.014 -4.314,-20.766C-3.985,-20.516 -3.57,-20.236 -3.069,-19.926C-2.449,-19.541 -1.752,-19.258 -0.987,-19.087C-0.216,-18.912 0.555,-18.711 1.332,-18.481C1.831,-18.325 2.334,-18.21 2.834,-18.131C3.335,-18.055 3.836,-17.94 4.342,-17.785C5.152,-17.551 5.944,-17.33 6.716,-17.12C7.486,-16.906 8.25,-16.646 9.028,-16.336C9.225,-16.26 9.415,-16.184 9.607,-16.109C9.799,-16.03 9.989,-15.934 10.186,-15.815C10.95,-15.355 11.636,-14.833 12.215,-14.257C12.795,-13.674 13.27,-12.939 13.653,-12.053C13.73,-11.783 13.81,-11.417 13.89,-10.956C13.969,-10.686 14.014,-10.406 14.034,-10.116C14.048,-9.826 14.061,-9.507 14.061,-9.161L14.061,-8.584C13.982,-8.311 13.948,-8.04 13.948,-7.771C13.948,-7.5 13.909,-7.23 13.83,-6.96C13.717,-6.538 13.58,-6.13 13.428,-5.748C13.27,-5.36 13.099,-5.011 12.908,-4.707C12.288,-3.698 11.497,-2.903 10.536,-2.302C9.567,-1.702 8.487,-1.189 7.294,-0.767C6.945,-0.649 6.589,-0.563 6.221,-0.51C5.852,-0.451 5.495,-0.359 5.152,-0.247C4.758,-0.167 4.375,-0.135 3.993,-0.135C3.604,-0.135 3.223,-0.095 2.834,-0.016L2.255,-0.016C2.057,0.023 1.793,0.044 1.45,0.044C1.101,0.044 0.83,0.023 0.634,-0.016L0,-0.016C-0.237,-0.095 -0.487,-0.122 -0.751,-0.102C-1.026,-0.082 -1.258,-0.115 -1.448,-0.188C-1.646,-0.227 -1.896,-0.247 -2.199,-0.247C-2.511,-0.32 -2.806,-0.392 -3.096,-0.451C-3.385,-0.51 -3.689,-0.596 -3.991,-0.707C-5.191,-1.097 -6.232,-1.577 -7.122,-2.157C-8.01,-2.737 -8.78,-3.489 -9.435,-4.417C-9.783,-4.917 -10.066,-5.432 -10.304,-5.979C-10.542,-6.519 -10.752,-7.115 -10.936,-7.771C-11.016,-8.005 -11.041,-8.284 -11.029,-8.611C-11.008,-8.937 -10.962,-9.197 -10.883,-9.392C-10.764,-9.542 -10.573,-9.698 -10.304,-9.856C-10.112,-9.932 -9.843,-9.981 -9.493,-9.997C-9.143,-10.017 -8.802,-10.01 -8.451,-9.967C-8.103,-9.932 -7.773,-9.883 -7.444,-9.826C-7.114,-9.771 -6.892,-9.698 -6.772,-9.622C-6.508,-9.428 -6.325,-9.148 -6.225,-8.782C-6.127,-8.416 -6.002,-8.08 -5.85,-7.771C-5.467,-6.921 -4.94,-6.262 -4.282,-5.801C-3.82,-5.458 -3.3,-5.188 -2.721,-4.99C-2.147,-4.8 -1.527,-4.609 -0.868,-4.417L0.343,-4.245L0.691,-4.245C0.963,-4.166 1.318,-4.127 1.768,-4.127C2.208,-4.127 2.584,-4.166 2.894,-4.245C3.163,-4.245 3.373,-4.259 3.531,-4.298C3.757,-4.338 3.993,-4.364 4.224,-4.384C4.455,-4.405 4.665,-4.43 4.863,-4.47C5.982,-4.78 6.866,-5.188 7.524,-5.683C8.184,-6.19 8.645,-7.039 8.909,-8.236C8.988,-8.426 9.007,-8.637 8.975,-8.871C8.936,-9.105 8.896,-9.276 8.855,-9.392C8.658,-10.123 8.395,-10.676 8.045,-11.042C7.696,-11.407 7.249,-11.747 6.716,-12.053C6.365,-12.287 5.982,-12.478 5.561,-12.633C5.134,-12.787 4.704,-12.939 4.284,-13.094C4.165,-13.137 4.059,-13.153 3.967,-13.153C3.868,-13.153 3.757,-13.19 3.65,-13.269C2.334,-13.694 0.976,-14.013 -0.434,-14.227C-1.843,-14.435 -3.162,-14.794 -4.399,-15.295C-4.783,-15.45 -5.152,-15.585 -5.501,-15.7C-5.85,-15.815 -6.179,-15.97 -6.481,-16.161C-7.221,-16.586 -7.893,-17.071 -8.513,-17.611C-9.131,-18.151 -9.604,-18.826 -9.961,-19.637C-10.066,-19.906 -10.158,-20.177 -10.219,-20.45C-10.276,-20.714 -10.344,-21.007 -10.423,-21.313C-10.542,-21.778 -10.573,-22.308 -10.542,-22.907C-10.502,-23.504 -10.435,-24.015 -10.362,-24.439C-10.284,-24.631 -10.237,-24.799 -10.219,-24.93C-10.197,-25.069 -10.151,-25.214 -10.066,-25.368C-9.724,-26.255 -9.25,-27.025 -8.655,-27.681C-8.057,-28.34 -7.371,-28.92 -6.601,-29.417C-6.021,-29.766 -5.39,-30.046 -4.69,-30.257C-3.991,-30.471 -3.268,-30.676 -2.489,-30.866C-2.227,-30.903 -1.962,-30.942 -1.712,-30.982C-1.462,-31.021 -1.179,-31.058 -0.868,-31.1C-0.751,-31.137 -0.599,-31.137 -0.408,-31.1C-0.216,-31.058 -0.079,-31.077 0,-31.153" style="fill:rgb(255,244,203);fill-rule:nonzero;"/>
        </g>
        <g transform="matrix(1,0,0,1,389.471,197.44)">
            <path d="M0,-33.805C0,-34.072 -0.007,-34.366 -0.027,-34.672C-0.039,-34.981 -0.033,-35.251 0,-35.485L0,-36.118C0.08,-36.503 0.157,-36.773 0.236,-36.928C0.461,-37.199 0.758,-37.373 1.106,-37.449C1.18,-37.492 1.251,-37.498 1.33,-37.478C1.409,-37.462 1.489,-37.469 1.568,-37.509C2.22,-37.509 2.912,-37.515 3.623,-37.537C4.335,-37.557 4.822,-37.373 5.1,-36.988C5.29,-36.754 5.396,-36.448 5.415,-36.058C5.436,-35.677 5.442,-35.287 5.442,-34.902L5.442,-25.992C5.442,-25.796 5.429,-25.626 5.389,-25.471C5.349,-25.313 5.335,-25.158 5.363,-25.007C5.375,-24.852 5.389,-24.716 5.389,-24.601C5.349,-24.486 5.329,-24.331 5.329,-24.14L5.329,-23.731C5.25,-23.461 5.218,-23.175 5.244,-22.866C5.256,-22.553 5.231,-22.265 5.152,-21.996L5.152,-21.3C5.073,-20.918 5.04,-20.51 5.04,-20.084C5.04,-19.66 5,-19.258 4.921,-18.869C4.921,-18.679 4.915,-18.504 4.895,-18.349C4.875,-18.197 4.861,-18.022 4.861,-17.828C4.744,-17.288 4.705,-16.708 4.723,-16.096C4.744,-15.472 4.691,-14.896 4.572,-14.356C4.532,-14.162 4.519,-13.987 4.519,-13.835L4.519,-13.315C4.4,-12.814 4.349,-12.304 4.374,-11.78C4.394,-11.259 4.349,-10.745 4.229,-10.248C4.189,-10.13 4.178,-10.004 4.203,-9.872C4.217,-9.734 4.21,-9.629 4.17,-9.553C4.17,-9.243 4.15,-9.009 4.11,-8.858C3.998,-8.315 3.887,-7.89 3.794,-7.582C3.702,-7.273 3.379,-7.062 2.846,-6.947C2.767,-6.908 2.688,-6.908 2.608,-6.947C2.529,-6.984 2.45,-7.004 2.371,-7.004C1.99,-7.122 1.752,-7.273 1.645,-7.468C1.555,-7.662 1.449,-7.968 1.33,-8.393C1.219,-8.894 1.172,-9.428 1.186,-9.985C1.212,-10.545 1.158,-11.075 1.041,-11.58C1.001,-11.77 1.001,-11.955 1.015,-12.129C1.033,-12.304 1.027,-12.485 0.987,-12.676C0.948,-12.831 0.936,-12.985 0.936,-13.14L0.936,-13.664C0.817,-14.162 0.764,-14.681 0.789,-15.226C0.804,-15.767 0.758,-16.287 0.639,-16.784C0.606,-16.981 0.593,-17.162 0.613,-17.334C0.631,-17.508 0.619,-17.677 0.579,-17.828C0.54,-18.022 0.527,-18.197 0.527,-18.349L0.527,-18.869C0.448,-19.258 0.408,-19.66 0.408,-20.084C0.408,-20.51 0.369,-20.918 0.29,-21.3C0.29,-21.419 0.284,-21.534 0.263,-21.65C0.244,-21.768 0.236,-21.88 0.236,-21.996C0.197,-22.186 0.177,-22.41 0.177,-22.66C0.177,-22.911 0.157,-23.152 0.119,-23.386L0.119,-23.731C0.04,-23.926 0,-24.14 0,-24.367L0,-25.062L0,-25.701C-0.033,-25.932 -0.039,-26.193 -0.027,-26.482C-0.007,-26.768 0,-27.032 0,-27.267L0,-33.805ZM5.851,-0.175C5.851,0.175 5.862,0.531 5.876,0.899C5.896,1.262 5.89,1.618 5.851,1.967C5.811,2.31 5.759,2.626 5.68,2.889C5.601,3.166 5.442,3.351 5.218,3.469C4.98,3.627 4.665,3.706 4.255,3.706L3.07,3.706C2.569,3.706 2.029,3.713 1.449,3.733C0.869,3.752 0.427,3.648 0.119,3.416C-0.305,3.14 -0.509,2.639 -0.487,1.914C-0.475,1.176 -0.461,0.485 -0.461,-0.175C-0.461,-0.483 -0.447,-0.787 -0.429,-1.077C-0.408,-1.36 -0.362,-1.604 -0.283,-1.802C-0.211,-2.065 -0.066,-2.25 0.144,-2.342C0.355,-2.441 0.619,-2.529 0.936,-2.605C1.041,-2.642 1.172,-2.642 1.305,-2.605C1.436,-2.566 1.548,-2.566 1.627,-2.605C1.936,-2.605 2.292,-2.612 2.693,-2.636C3.096,-2.655 3.492,-2.655 3.887,-2.636C4.269,-2.612 4.611,-2.566 4.921,-2.49C5.231,-2.415 5.442,-2.276 5.561,-2.085C5.712,-1.894 5.799,-1.624 5.823,-1.274C5.837,-0.933 5.851,-0.562 5.851,-0.175" style="fill:rgb(255,244,203);fill-rule:nonzero;"/>
        </g>
    </g>
</svg>
